<svg viewBox="0 0 330 200" xmlns="http://www.w3.org/2000/svg"><g><g><g><g><g><line x1="60" y1="175.89983255996262" x2="55" y2="175.89983255996262" style="visibility: inherit;" fill="rgb(0, 0, 0)" stroke="rgb(204, 204, 204)" stroke-width="1px"></line><line x1="60" y1="160.93187636844647" x2="55" y2="160.93187636844647" style="visibility: inherit;" fill="rgb(0, 0, 0)" stroke="rgb(204, 204, 204)" stroke-width="1px"></line><line x1="60" y1="145.96392017693034" x2="55" y2="145.96392017693034" style="visibility: inherit;" fill="rgb(0, 0, 0)" stroke="rgb(204, 204, 204)" stroke-width="1px"></line><line x1="60" y1="130.99596398541422" x2="55" y2="130.99596398541422" style="visibility: inherit;" fill="rgb(0, 0, 0)" stroke="rgb(204, 204, 204)" stroke-width="1px"></line><line x1="60" y1="116.02800779389808" x2="55" y2="116.02800779389808" style="visibility: inherit;" fill="rgb(0, 0, 0)" stroke="rgb(204, 204, 204)" stroke-width="1px"></line><line x1="60" y1="101.06005160238195" x2="55" y2="101.06005160238195" style="visibility: inherit;" fill="rgb(0, 0, 0)" stroke="rgb(204, 204, 204)" stroke-width="1px"></line><line x1="60" y1="86.09209541086581" x2="55" y2="86.09209541086581" style="visibility: inherit;" fill="rgb(0, 0, 0)" stroke="rgb(204, 204, 204)" stroke-width="1px"></line><line x1="60" y1="71.12413921934969" x2="55" y2="71.12413921934969" style="visibility: inherit;" fill="rgb(0, 0, 0)" stroke="rgb(204, 204, 204)" stroke-width="1px"></line><line x1="60" y1="56.15618302783355" x2="55" y2="56.15618302783355" style="visibility: inherit;" fill="rgb(0, 0, 0)" stroke="rgb(204, 204, 204)" stroke-width="1px"></line><line x1="60" y1="41.1882268363174" x2="55" y2="41.1882268363174" style="visibility: inherit;" fill="rgb(0, 0, 0)" stroke="rgb(204, 204, 204)" stroke-width="1px"></line><line x1="60" y1="26.220270644801275" x2="55" y2="26.220270644801275" style="visibility: inherit;" fill="rgb(0, 0, 0)" stroke="rgb(204, 204, 204)" stroke-width="1px"></line><line x1="60" y1="11.252314453285152" x2="55" y2="11.252314453285152" style="visibility: inherit;" fill="rgb(0, 0, 0)" stroke="rgb(204, 204, 204)" stroke-width="1px"></line></g><g transform="translate(50, 0)"><text x="0" y="175.89983255996262" dx="0em" dy="0.3em" style="text-anchor: end; visibility: hidden; font-family: &quot;Helvetica Neue&quot;, sans-serif; font-size: 12px; font-weight: 200;" fill="rgb(50, 49, 63)" stroke="none" stroke-width="1px">-2.00</text><text x="0" y="160.93187636844647" dx="0em" dy="0.3em" style="text-anchor: end; visibility: inherit; font-family: &quot;Helvetica Neue&quot;, sans-serif; font-size: 12px; font-weight: 200;" fill="rgb(50, 49, 63)" stroke="none" stroke-width="1px">0.00</text><text x="0" y="145.96392017693034" dx="0em" dy="0.3em" style="text-anchor: end; visibility: hidden; font-family: &quot;Helvetica Neue&quot;, sans-serif; font-size: 12px; font-weight: 200;" fill="rgb(50, 49, 63)" stroke="none" stroke-width="1px">2.00</text><text x="0" y="130.99596398541422" dx="0em" dy="0.3em" style="text-anchor: end; visibility: inherit; font-family: &quot;Helvetica Neue&quot;, sans-serif; font-size: 12px; font-weight: 200;" fill="rgb(50, 49, 63)" stroke="none" stroke-width="1px">4.00</text><text x="0" y="116.02800779389808" dx="0em" dy="0.3em" style="text-anchor: end; visibility: hidden; font-family: &quot;Helvetica Neue&quot;, sans-serif; font-size: 12px; font-weight: 200;" fill="rgb(50, 49, 63)" stroke="none" stroke-width="1px">6.00</text><text x="0" y="101.06005160238195" dx="0em" dy="0.3em" style="text-anchor: end; visibility: inherit; font-family: &quot;Helvetica Neue&quot;, sans-serif; font-size: 12px; font-weight: 200;" fill="rgb(50, 49, 63)" stroke="none" stroke-width="1px">8.00</text><text x="0" y="86.09209541086581" dx="0em" dy="0.3em" style="text-anchor: end; visibility: hidden; font-family: &quot;Helvetica Neue&quot;, sans-serif; font-size: 12px; font-weight: 200;" fill="rgb(50, 49, 63)" stroke="none" stroke-width="1px">10.0</text><text x="0" y="71.12413921934969" dx="0em" dy="0.3em" style="text-anchor: end; visibility: inherit; font-family: &quot;Helvetica Neue&quot;, sans-serif; font-size: 12px; font-weight: 200;" fill="rgb(50, 49, 63)" stroke="none" stroke-width="1px">12.0</text><text x="0" y="56.15618302783355" dx="0em" dy="0.3em" style="text-anchor: end; visibility: hidden; font-family: &quot;Helvetica Neue&quot;, sans-serif; font-size: 12px; font-weight: 200;" fill="rgb(50, 49, 63)" stroke="none" stroke-width="1px">14.0</text><text x="0" y="41.1882268363174" dx="0em" dy="0.3em" style="text-anchor: end; visibility: inherit; font-family: &quot;Helvetica Neue&quot;, sans-serif; font-size: 12px; font-weight: 200;" fill="rgb(50, 49, 63)" stroke="none" stroke-width="1px">16.0</text><text x="0" y="26.220270644801275" dx="0em" dy="0.3em" style="text-anchor: end; visibility: hidden; font-family: &quot;Helvetica Neue&quot;, sans-serif; font-size: 12px; font-weight: 200;" fill="rgb(50, 49, 63)" stroke="none" stroke-width="1px">18.0</text><text x="0" y="11.252314453285152" dx="0em" dy="0.3em" style="text-anchor: end; visibility: inherit; font-family: &quot;Helvetica Neue&quot;, sans-serif; font-size: 12px; font-weight: 200;" fill="rgb(50, 49, 63)" stroke="none" stroke-width="1px">20.0</text></g><line x1="60" y1="0" x2="60" y2="178" fill="rgb(0, 0, 0)" stroke="rgb(204, 204, 204)" stroke-width="1px"></line></g></g><g transform="translate(60, 0)" clip-path="url(#clip_0)"><clipPath id="clip_0"><rect width="270" height="178"></rect></clipPath><g><g><g><line x1="7.172369469776808" y1="0" x2="7.172369469776808" y2="178" fill="rgb(0, 0, 0)" stroke="rgb(60, 60, 60)" stroke-width="1px" opacity="0.25"></line><line x1="32.39926192738824" y1="0" x2="32.39926192738824" y2="178" fill="rgb(0, 0, 0)" stroke="rgb(60, 60, 60)" stroke-width="1px" opacity="0.25"></line><line x1="57.626154384999666" y1="0" x2="57.626154384999666" y2="178" fill="rgb(0, 0, 0)" stroke="rgb(60, 60, 60)" stroke-width="1px" opacity="0.25"></line><line x1="82.85304684261108" y1="0" x2="82.85304684261108" y2="178" fill="rgb(0, 0, 0)" stroke="rgb(60, 60, 60)" stroke-width="1px" opacity="0.25"></line><line x1="108.07993930022252" y1="0" x2="108.07993930022252" y2="178" fill="rgb(0, 0, 0)" stroke="rgb(60, 60, 60)" stroke-width="1px" opacity="0.25"></line><line x1="133.30683175783395" y1="0" x2="133.30683175783395" y2="178" fill="rgb(0, 0, 0)" stroke="rgb(60, 60, 60)" stroke-width="1px" opacity="0.25"></line><line x1="158.53372421544537" y1="0" x2="158.53372421544537" y2="178" fill="rgb(0, 0, 0)" stroke="rgb(60, 60, 60)" stroke-width="1px" opacity="0.25"></line><line x1="183.7606166730568" y1="0" x2="183.7606166730568" y2="178" fill="rgb(0, 0, 0)" stroke="rgb(60, 60, 60)" stroke-width="1px" opacity="0.25"></line><line x1="208.98750913066823" y1="0" x2="208.98750913066823" y2="178" fill="rgb(0, 0, 0)" stroke="rgb(60, 60, 60)" stroke-width="1px" opacity="0.25"></line><line x1="234.21440158827966" y1="0" x2="234.21440158827966" y2="178" fill="rgb(0, 0, 0)" stroke="rgb(60, 60, 60)" stroke-width="1px" opacity="0.25"></line><line x1="259.4412940458911" y1="0" x2="259.4412940458911" y2="178" fill="rgb(0, 0, 0)" stroke="rgb(60, 60, 60)" stroke-width="1px" opacity="0.25"></line></g><g><line x1="0" y1="175.89983255996262" x2="270" y2="175.89983255996262" fill="rgb(0, 0, 0)" stroke="rgb(60, 60, 60)" stroke-width="1px" opacity="0.25"></line><line x1="0" y1="160.93187636844647" x2="270" y2="160.93187636844647" fill="rgb(0, 0, 0)" stroke="rgb(60, 60, 60)" stroke-width="1px" opacity="0.25"></line><line x1="0" y1="145.96392017693034" x2="270" y2="145.96392017693034" fill="rgb(0, 0, 0)" stroke="rgb(60, 60, 60)" stroke-width="1px" opacity="0.25"></line><line x1="0" y1="130.99596398541422" x2="270" y2="130.99596398541422" fill="rgb(0, 0, 0)" stroke="rgb(60, 60, 60)" stroke-width="1px" opacity="0.25"></line><line x1="0" y1="116.02800779389808" x2="270" y2="116.02800779389808" fill="rgb(0, 0, 0)" stroke="rgb(60, 60, 60)" stroke-width="1px" opacity="0.25"></line><line x1="0" y1="101.06005160238195" x2="270" y2="101.06005160238195" fill="rgb(0, 0, 0)" stroke="rgb(60, 60, 60)" stroke-width="1px" opacity="0.25"></line><line x1="0" y1="86.09209541086581" x2="270" y2="86.09209541086581" fill="rgb(0, 0, 0)" stroke="rgb(60, 60, 60)" stroke-width="1px" opacity="0.25"></line><line x1="0" y1="71.12413921934969" x2="270" y2="71.12413921934969" fill="rgb(0, 0, 0)" stroke="rgb(60, 60, 60)" stroke-width="1px" opacity="0.25"></line><line x1="0" y1="56.15618302783355" x2="270" y2="56.15618302783355" fill="rgb(0, 0, 0)" stroke="rgb(60, 60, 60)" stroke-width="1px" opacity="0.25"></line><line x1="0" y1="41.1882268363174" x2="270" y2="41.1882268363174" fill="rgb(0, 0, 0)" stroke="rgb(60, 60, 60)" stroke-width="1px" opacity="0.25"></line><line x1="0" y1="26.220270644801275" x2="270" y2="26.220270644801275" fill="rgb(0, 0, 0)" stroke="rgb(60, 60, 60)" stroke-width="1px" opacity="0.25"></line><line x1="0" y1="11.252314453285152" x2="270" y2="11.252314453285152" fill="rgb(0, 0, 0)" stroke="rgb(60, 60, 60)" stroke-width="1px" opacity="0.25"></line></g></g></g><g><g><line x1="0" y1="160.93187636844647" x2="270" y2="160.93187636844647" fill="rgb(0, 0, 0)" stroke="rgb(153, 153, 153)" stroke-width="1.5px"></line></g></g><g><g><line x1="32.39926192738824" y1="0" x2="32.39926192738824" y2="178" fill="rgb(0, 0, 0)" stroke="rgb(153, 153, 153)" stroke-width="1.5px"></line></g></g><g><g><g><g><g><path stroke="rgb(255, 112, 67)" stroke-width="2px" d="M32.77766531425241,160.845569081876L33.029934238828524,160.82822161664765L33.15606870111658,160.8164939689172L33.408337625692695,160.80005131042006L33.66060655026881,160.78318875332712L33.78674101255687,160.76940065248445L33.912875474844924,160.75547528794436L34.03900993713298,160.74121682561645L34.16514439942104,160.72538234528332L34.291278861709095,160.7075774319584L34.417413323997145,160.6876543303062L34.54354778628521,160.6663022987942L34.66968224857327,160.64355241981374L34.795816710861324,160.61900739775749L34.92195117314938,160.59330298578294L35.174220097725495,160.56272130161238L35.42648902230161,160.52857795377034L35.55262348458967,160.49507736802133L36.18329579602995,160.45015128899408L36.30943025831801,160.40598947733434L36.43556472060607,160.36379889596697L36.561699182894124,160.32339590323488L36.68783364518218,160.28512503225835L36.940102569758295,160.2441164962347L37.31850595662247,160.19525529865413L37.444640418910524,160.14625755904467L37.69690934348664,160.09374809734356L37.823043805774695,160.04280385257184L37.94917826806275,159.99275993514442L38.07531273035081,159.94379821963082L38.327581654926924,159.89206301484828L38.57985057950304,159.83772691255905L38.705985041791095,159.78475405225805L39.08438842865527,159.72617844501326L39.210522890943324,159.66891848262443L39.33665735323138,159.61270527341625L39.46279181551944,159.55744489806716L39.588926277807495,159.50363323882434L39.96732966467167,159.44444454784846L40.093464126959724,159.3858791487845L40.34573305153584,159.3261601802482L40.471867513823895,159.26730105621328L40.59800197611195,159.20998423721343L40.72413643840001,159.15312905717357L40.850270900688066,159.09688355787318L40.976405362976124,159.04136076671173L41.10253982526418,158.9861502695088L41.354808749840295,158.92843439892695L41.48094321212835,158.87228437840997L41.607077674416416,158.8168304416337L41.733212136704466,158.76163460023793L41.98548106128058,158.7053151730862L42.237749985856695,158.64729872903112L42.36388444814475,158.5906998003666L42.616153372720866,158.53335381659366L42.74228783500892,158.47621807511683L42.99455675958504,158.41656105002363L43.120691221873095,158.35750805910666L43.24682568416116,158.29886456693032L43.37296014644921,158.23980489629875L43.499094608737266,158.18007073016736L43.62522907102532,158.11903743839136L43.87749799560144,158.05232786311439L44.003632457889495,157.98613291164833L44.12976692017755,157.91896216508403L44.25590138246561,157.84903992866623L44.8865736939059,157.76123382340384L45.01270815619395,157.6767724319821L45.264977080770066,157.59018896839143L45.51724600534618,157.50620344079468L45.64338046763424,157.42457595261897L45.769514929922295,157.34648008122156L46.147918316786466,157.2761296322016L46.652456165938695,157.20767918473788L47.030859552802866,157.14643271827987L47.28312847737898,157.08656201106385L47.40926293966704,157.02803780205585L47.535397401955095,156.97099428639854L48.03993525110732,156.90395176109953L48.16606971339539,156.83734292855388L48.29220417568344,156.77189939186252L48.418338637971495,156.70337955913013L48.67060756254761,156.62740815303198L48.796742024835666,156.55193964344372L49.175145411699845,156.45618785573018L49.55354879856401,156.34925320387973L49.679683260852066,156.24204715149708L49.93195218542818,156.13236029439318L50.184221110004295,156.02123197720496L50.31035557229235,155.9134110788499L50.43649003458041,155.8038837827581L50.562624496868466,155.7026269474288L50.68875895915652,155.59211366886638L50.81489342144459,155.4948573724079L51.067162346020694,155.3861192085167L51.19329680830875,155.2795822906303L51.31943127059681,155.1729822262904L51.44556573288487,155.07708925938795L51.69783465746098,154.9755447890404L51.82396911974904,154.87925707820773L51.950103582037094,154.78600776536362L52.20237250661321,154.69667799326976L52.328506968901266,154.61016165123996L52.45464143118933,154.53051606034546L52.70691035576544,154.45230495372127L52.833044818053494,154.37802165303813L53.085313742629616,154.3035860959592L53.211448204917666,154.23623697788648L53.46371712949378,154.1704854125917L53.58985159178184,154.1074588695552L53.715986054069894,154.04654123620344L53.96825497864601,153.98533470577118L54.47279282779824,153.90837415531226L54.598927290086294,153.8297026040926L54.72506175237436,153.74952560285118L54.85119621466241,153.67313373762022L55.10346513923852,153.57068535036393L55.22959960152658,153.46831450430537L55.481868526102694,153.3371502581819L55.734137450678816,153.17438465782806L55.860271912966866,152.98924770344462L55.98640637525492,152.7956274057871L56.11254083754298,152.58586077607822L56.3648097621191,152.34198094356478L56.49094422440715,152.05562475152283L57.37388546042356,151.56342983975122L57.87842330957578,150.97775989137827L58.25682669643995,150.3950496208347L58.38296115872801,149.79676944055103L58.509095621016066,149.23642861242936L58.63523008330412,148.68837506310697L59.13976793245635,148.13796070151523L59.26590239474441,147.6017135411627L59.392036857032465,147.04285108666187L59.51817131932052,146.54817372446172L59.896574706184694,146.0241927117837L60.02270916847275,145.49369538192065L60.14884363076081,144.94656233285133L60.27497809304887,144.42320739696547L60.40111255533692,143.8832150677299L60.52724701762498,143.36709077977508L60.779515942201094,142.85415177752907L60.90565040448915,142.350674953751L61.03178486677721,141.84560368853766L61.28405379135333,141.29771612821378L61.41018825364138,140.78283172099736L61.53632271592944,140.2655737277607L61.662457178217494,139.72114635199114L61.78859164050555,139.25972778499994L61.914726102793615,138.81889843554316L62.29312948965779,138.42154032781772L62.41926395194584,137.99839837616918L62.67153287652195,137.57789203472475L63.17607072567418,137.18958054897723L63.30220518796224,136.8247041460204L63.55447411253836,136.454398061169L63.68060857482641,136.08343780600933L63.806743037114465,135.73367985756647L63.93287749940253,135.34098805724852L64.05901196169059,134.94406166532923L64.18514642397864,134.51277351482548L64.56354981084282,134.00525135792816L64.94195319770698,133.3930260678176L65.06808765999503,132.7817407368588L65.1942221222831,132.21257758723442L65.32035658457114,131.62314141730647L65.57262550914726,131.0517184407335L66.07716335829949,130.37442970092366L66.3294322828756,129.73865225555474L66.58170120745172,129.0407139799996L66.70783566973978,128.35871430521644L66.83397013202783,127.69118046033282L66.96010459431588,127.00168452965718L67.08623905660394,126.3214626325129L67.33850798118006,125.5740833380194L67.46464244346812,124.82815275162784L67.71691136804424,124.00058271781882L67.96918029262034,123.02923121030827L68.22144921719647,121.91894468864386L68.85212152863674,120.5369654048188L69.10439045321286,119.0371073621819L69.23052491550091,117.53760275493732L69.48279384007704,115.8674015986546L69.60892830236509,114.11956684753162L69.73506276465314,112.33474956646096L69.8611972269412,110.51324461830467L69.98733168922926,108.69073615332306L70.11346615151731,106.8473874670151L70.23960061380538,105.01217531376439L70.36573507609344,103.1515165939498L70.49186953838148,101.24423708582724L70.61800400066954,99.31372018499722L71.12254184982177,97.07882921210508L71.24867631210982,94.85938017986088L71.50094523668595,92.60433861587768L71.87934862355011,90.37009904429927L72.38388647270234,88.23578028496561L72.5100209349904,86.23226168362538L72.63615539727846,84.36945938630333L72.76228985956652,82.62196725423276L73.01455878414262,81.00152493458256L73.14069324643069,79.48716207985964L73.26682770871875,78.08291440983254L73.3929621710068,76.778658413771L73.51909663329486,75.57195139369668L73.64523109558293,74.45075226878646L74.0236344824471,73.44818142388971L74.14976894473514,72.52336436018193L74.40203786931126,71.67413300497132L74.65430679388737,70.90218333951911L74.9065757184635,70.17611392121879L75.1588446430396,69.50837980705286L75.41111356761571,68.9039536507841L75.53724802990378,68.35197799255272L75.66338249219183,67.86020112561063L75.78951695447988,67.41077828599053L75.91565141676794,67.01283267308496L76.04178587905601,66.66207893098645L76.16792034134407,66.34562301495531L76.29405480363211,66.07349817210226L76.42018926592017,65.83957694426832L76.67245819049629,65.64240078159092L76.92472711507241,65.48550643000796L77.05086157736045,65.3518668834285L77.30313050193658,65.23025855059616L77.5553994265127,65.12032369161848L77.68153388880074,65.03388741378303L77.8076683510888,64.94076909169897L77.93380281337686,64.86420940222784L78.05993727566492,64.7943405934659L78.18607173795299,64.71863471133278L78.31220620024102,64.66624436237322L78.43834066252909,64.62659755891288L78.56447512481715,64.58487171148728L78.6906095871052,64.56916116855825L78.81674404939326,64.56026838299141L79.06901297396936,64.5495008456388L79.19514743625743,64.57826005036614L79.44741636083356,64.62252388617043L79.69968528540966,64.70242296031623L79.82581974769772,64.7478592931763L79.95195420998577,64.82370902402953L80.07808867227384,64.90832671616339L80.2042231345619,64.96957988188375L80.456492059138,65.06654529784615L80.58262652142606,65.16989344830506L80.83489544600218,65.22445868574817L80.96102990829023,65.28408861979787L81.08716437057828,65.35022311602395L81.21329883286634,65.45308744279913L81.33943329515441,65.52008881398689L81.59170221973051,65.6276324836324L81.71783668201857,65.70356252164461L81.84397114430664,65.81903885609461L81.97010560659469,65.89761347443388L82.60077791803498,66.02363523664383L82.72691238032304,66.16716631669237L83.10531576718721,66.38732020130035L83.23145022947526,66.58449810754422L83.48371915405139,66.78946149825522L83.60985361633942,67.0015492149952L83.86212254091555,67.23530854608885L84.11439146549166,67.46234178646867L84.74506377693196,67.73119777394456L84.87119823921999,68.06478385150433L85.24960162608417,68.33931440743629L85.37573608837224,68.66622280631893L85.50187055066029,68.98571700689406L85.62800501294834,69.28646492340314L85.7541394752364,69.57918407019068L85.88027393752446,69.88755826451082L86.13254286210056,70.17930604206242L86.38481178667669,70.5406703325514L86.6370807112528,70.88616800658149L86.8893496358289,71.20526675470305L87.26775302269309,71.51892220374424L87.39388748498115,71.86766950540132L87.77229087184531,72.20115231716817L87.89842533413338,72.57426893817083L88.02455979642144,72.92269013511597L88.15069425870948,73.22507209845647L88.4029631832856,73.5859511692562L88.52909764557366,73.93312017243086L88.90750103243782,74.28866394989637L89.03363549472589,74.61801891916197L89.28590441930201,74.99703364966643L89.66430780616618,75.30512108450478L90.04271119303036,75.64963838089845L90.16884565531839,75.9615130753704L90.29498011760646,76.29095845390886L90.42111457989452,76.56965571169388L90.54724904218257,76.804338268219L90.79951796675869,77.10475333252059L90.92565242904675,77.36986921896413L91.0517868913348,77.64359078688675L91.17792135362286,77.8612390338771L91.30405581591093,78.12312073761007L91.43019027819896,78.39210263822916L91.55632474048703,78.51701333687984L91.80859366506314,78.72813793187755L92.06086258963926,78.92452545163835L92.1869970519273,79.13503826130746L92.5654004387915,79.2959648577043L92.69153490107955,79.47101954721688L93.19607275023178,79.67404741888441L93.57447613709594,79.92725805994783L93.700610599384,80.13360896023114L93.95287952396012,80.33556743188898L94.07901398624817,80.55964433256396L94.33128291082429,80.74186150847123L94.45741737311235,80.93170232183407L94.58355183540041,81.07994510158784L94.96195522226458,81.25647601619396L95.08808968455263,81.40532976307743L95.34035860912874,81.52200252816748L95.84489645828099,81.61196109928181L96.22329984514515,81.75971829325657L96.3494343074332,81.83727690116282L96.47556876972126,81.95224331175353L96.60170323200933,82.06143501040721L96.72783769429736,82.17250984565396L96.85397215658543,82.28873239557086L96.98010661887349,82.3728745624448L97.2323755434496,82.43971624647915L97.35851000573766,82.50593674453846L97.48464446802572,82.57895746094977L97.61077893031377,82.5727234014289L97.73691339260183,82.60405191352658L97.8630478548899,82.66253025012334L97.98918231717794,82.70467147582825L98.49372016633018,82.64088741002423L98.61985462861823,82.63396981740158L99.37666140234657,82.64762407665805L99.62893032692268,82.63418846401572L99.75506478921075,82.65204853101096L99.88119925149881,82.63244630242897L100.00733371378685,82.68246891966656L100.13346817607491,82.71978274324816L100.25960263836298,82.6990701987706L100.38573710065103,82.6208745061511L100.51187156293909,82.61809184426566L100.63800602522714,82.62653219829468L100.7641404875152,82.62360704142564L100.89027494980326,82.70028541091393L101.01640941209132,82.66646703523453L101.14254387437938,82.63837623580848L101.26867833666742,82.64156232690632L101.39481279895548,82.6428584006478L101.52094726124355,82.65765339772636L101.6470817235316,82.66959963107259L101.89935064810771,82.60701995668346L102.02548511039576,82.5734975329607L102.15161957268383,82.571354142417L102.40388849725996,82.59053616253921L102.65615742183606,82.61126964944505L102.90842634641217,82.61955182892596L103.03456080870023,82.61812691949574L103.4129641955644,82.59198836584186L103.53909865785246,82.61254539944198L103.66523312014051,82.58621922999222L103.91750204471663,82.63090242808151L104.04363650700469,82.64480966672481L104.16977096929274,82.71648659231428L104.42203989386887,82.68332833118039L104.67430881844497,82.60913879997545L104.80044328073303,82.59228590162449L105.05271220530915,82.56614226799383L105.1788466675972,82.57923300224711L105.30498112988525,82.56691641834017L105.43111559217331,82.49383841566048L105.55725005446138,82.528972582003L105.68338451674944,82.52249164227558L105.80951897903749,82.5724343241557L105.93565344132554,82.5406950066755L106.0617879036136,82.52132680999895L106.31405682818972,82.51786762933374L106.44019129047778,82.44062072508875L106.56632575276582,82.42376895157861L106.94472913963,82.3586446921425L107.07086360191806,82.37429687112326L107.19699806420611,82.39684463133301L107.44926698878223,82.34697409493197L107.57540145107029,82.29742521888275L107.70153591335836,82.29681435116237L107.82767037564639,82.27664155550914L108.07993930022252,82.33244899330734L108.33220822479863,82.35419567253079L108.4583426870867,82.36875211901791L108.58447714937473,82.38847335468347L108.83674607395086,82.39561535993894L109.08901499852698,82.38870530653614L109.34128392310309,82.32849588812574L109.46741838539114,82.30662581378374L109.5935528476792,82.27057085543423L109.97195623454337,82.23080487615842L110.4764940836956,82.3122382815232L110.60262854598366,82.3367273505872L110.72876300827171,82.38167237897783L110.85489747055978,82.45122680644022L110.98103193284784,82.57947743271683L111.23330085742394,82.61217140478938L111.359435319712,82.7613789378342L111.73783870657618,82.89468550570321L111.86397316886422,82.94512188470432L112.11624209344035,83.04845081237171L112.36851101801646,83.26679357991452L112.49464548030451,83.35868184524672L112.87304886716869,83.45060853822945L113.12531779174479,83.48196579978021L113.25145225403286,83.60223849056379L113.37758671632092,83.75807388792028L113.62985564089703,83.83844138414318L113.75599010318508,83.9252591451892L113.88212456547315,84.02163291191518L114.0082590277612,84.10706623570928L114.13439349004926,84.14697066655764L114.26052795233733,84.22401156415833L114.38666241462536,84.2810102199245L114.51279687691343,84.42487004025345L114.63893133920149,84.47509900978963L115.1434691883537,84.61321143286695L115.26960365064177,84.80310153464306L115.5218725752179,84.87598551110689L115.774141499794,84.95056653331827L115.90027596208206,85.11973104654055L116.02641042437011,85.18559430721871L116.15254488665818,85.27695219195962L116.27867934894624,85.33027063181127L116.40481381123428,85.33557210744361L116.53094827352234,85.26618652772115L116.6570827358104,85.19496047582845L116.78321719809847,85.18458288844131L117.03548612267457,85.04420063641577L117.16162058496263,85.10198374757425L117.28775504725068,85.17517215266099L117.41388950953875,85.23606455928042L117.54002397182681,85.27415541305416L117.79229289640291,85.39903562012687L117.91842735869098,85.38824387578035L118.04456182097903,85.4514186617589L118.29683074555516,85.49555279420224L118.42296520784319,85.58788167076952L118.54909967013126,85.67623670514844L118.67523413241932,85.69120270407748L118.80136859470738,85.70706828890052L118.92750305699543,85.77549985494794L119.05363751928348,85.73910293210417L119.17977198157155,85.72240795249714L119.3059064438596,85.62893553228734L119.68430983072376,85.55275688253978L119.93657875529989,85.42960181620019L120.188847679876,85.49336193165543L120.56725106674017,85.53450327970766L120.69338552902823,85.53198923006052L120.8195199913163,85.60467383676328L120.94565445360433,85.69917292331577L121.0717889158924,85.66890449222697L121.19792337818046,85.70963610324578L121.32405784046851,85.60852306456404L121.45019230275658,85.59656919325089L121.57632676504464,85.63382855790157L121.70246122733269,85.54060043178652L121.82859568962074,85.5140555590168L121.9547301519088,85.59878888156928L122.08086461419687,85.55293010128841L122.45926800106103,85.53782863521499L122.58540246334908,85.47771495293519L122.96380585021325,85.48350578810492L123.08994031250131,85.44319073302825L123.34220923707744,85.3436541630633L123.46834369936549,85.30796675655513L123.59447816165354,85.17108648845588L123.7206126239416,85.02905721377905L123.84674708622966,84.83392508033397L123.97288154851772,84.67041712012127L124.35128493538188,84.72046207193974L124.47741939766995,84.70173469376883L124.603553859958,84.60001925280596L125.10809170911023,84.49826117780357L125.23422617139829,84.46152879975888L125.4864950959744,84.3942474622122L125.61262955826246,84.4266757268209L125.73876402055052,84.44886576768886L125.86489848283857,84.59219178526264L126.1171674074147,84.57783722838309L126.49557079427886,84.61227086125395L126.62170525656693,84.59689221057295L126.87397418114303,84.58492435635364L127.00010864343109,84.67001479198008L127.12624310571914,84.7228874947403L127.2523775680072,84.85430046323306L127.37851203029527,84.83394951720314L127.5046464925833,84.81022297473564L127.63078095487137,84.7120708030542L127.75691541715943,84.63449533474653L128.1353188040236,84.42491679299613L128.26145326631166,84.34159682521639L128.51372219088776,84.17144174259795L128.7659911154639,84.05077962461229L128.89212557775193,83.89721353455688L129.01826004004,83.87947341582037L129.14439450232805,83.81049341431107L129.39666342690418,83.7517649682975L129.52279788919222,83.64946271910655L129.64893235148028,83.66884931374803L129.77506681376835,83.73153022817755L129.9012012760564,83.6844819861017L130.02733573834448,83.65760336859756L130.1534702006325,83.65071698142972L130.27960466292058,83.64633358713884L130.65800804978474,83.6459474909647L130.7841425120728,83.67191211750148L131.16254589893697,83.7745929928431L131.28868036122503,83.7891403316032L131.4148148235131,83.86634328584094L131.6670837480892,83.99155439811766L131.91935267266533,84.12282085005185L132.0454871349534,84.22735165585223L132.17162159724143,84.4715585942542L132.2977560595295,84.60628168415214L132.42389052181755,84.74098246446744L132.55002498410562,84.99535612023655L132.67615944639365,85.11670263197844L132.80229390868172,85.21448113202992L133.05456283325782,85.51248940841371L133.18069729554588,85.67663469428003L133.30683175783395,85.86040972677773L133.55910068241005,86.06283767965594L133.93750406927424,86.15766924004271L134.0636385315623,86.33198038825994L134.18977299385034,86.49034356921487L134.3159074561384,86.57529963223543L134.44204191842647,86.7883541723117L134.69431084300257,86.97751229657088L134.82044530529063,87.08420486200855L134.9465797675787,87.28132172759527L135.1988486921548,87.47237485832386L135.32498315444286,87.6800791763602L135.57725207901896,87.863157996251L135.95565546588315,88.05933042482123L136.20792439045928,88.2759332942999L136.33405885274732,88.49956562084424L136.46019331503535,88.75844983956591L136.83859670189955,89.00413899794312L136.9647311641876,89.24787573498077L137.2170000887637,89.4419774706822L137.34313455105178,89.5972123273597L137.5954034756279,89.77397528287169L137.72153793791594,90.03913402618163L137.847672400204,90.26229802020035L138.0999413247801,90.49810195251524L138.22607578706817,90.75981763625214L138.60447917393236,91.03608943066845L138.73061363622043,91.36652830787695L138.98288256079653,91.62474579890558L139.10901702308456,91.92886072777287L139.23515148537263,92.20336674021034L139.3612859476607,92.51512992836943L139.6135548722368,92.84462858621501L139.73968933452485,93.10887662203993L139.86582379681292,93.41051129443595L139.99195825910098,93.68998208672318L140.2442271836771,93.99287892795371L140.49649610825318,94.32051246380159L140.7487650328293,94.6393501238093L140.87489949511738,94.94198768481168L141.00103395740544,95.22031710444108L141.1271684196935,95.52961649429004L141.25330288198154,95.81228195796879L141.75784073113377,96.07147348393211L141.88397519342183,96.3366356456414L142.0101096557099,96.63304783670966L142.13624411799793,96.86470578914833L142.51464750486213,97.10718433112635L142.6407819671502,97.3412413081729L142.76691642943825,97.59058910039096L142.8930508917263,97.77817279744667L143.01918535401433,97.95935673237996L143.27145427859045,98.18368525226639L143.39758874087852,98.43080070651233L143.52372320316658,98.62806861000898L143.64985766545465,98.80706084243039L143.90212659003075,99.01467001045027L144.15439551460688,99.14740876605988L144.2805299768949,99.34122961095485L144.40666443918298,99.50637786360481L144.532798901471,99.67846772925827L144.65893336375908,99.85028054003871L144.9112022883352,100.0108747911017L145.03733675062327,100.13008519784306L145.16347121291133,100.27592810511598L145.41574013748743,100.38295463981409L145.5418745997755,100.51278271627966L145.7941435243516,100.6068720067325L145.92027798663966,100.61594560824281L146.4248158357919,100.6368553445206L146.55095029807995,100.60584119622403L146.80321922265608,100.54503949011888L146.9293536849441,100.53161715552838L147.05548814723215,100.46286654845663L147.18162260952022,100.37055564703789L147.30775707180828,100.36444380617978L147.43389153409635,100.30281596625161L147.5600259963844,100.19969038822153L147.8122949209605,100.05364332738377L147.93842938324858,99.90995351903028L148.06456384553664,99.82300442488827L148.4429672324008,99.62666873207176L148.56910169468887,99.3919492071675L148.6952361569769,99.12557308183125L148.82137061926497,98.88072682555256L149.0736395438411,98.60190697358956L149.83044631756943,98.38349937810113L149.9565807798575,98.03626467837375L150.08271524214555,97.80805702832288L150.20884970443362,97.57626750315166L150.33498416672165,97.3292894139816L150.83952201587388,97.03358410228498L151.21792540273805,96.78378826333547L151.3440598650261,96.60169801135443L151.59632878960224,96.41175156423256L151.9747321764664,96.24660498318958L152.10086663875447,96.089901363129L152.35313556333057,95.86596931787564L152.47927002561863,95.74744115121142L152.6054044879067,95.60122657447275L152.73153895019473,95.43438274767567L152.98380787477086,95.32398196864906L153.10994233705892,95.17316893234734L153.236076799347,95.08331061366835L153.36221126163505,95.01000110069475L153.4883457239231,94.85232678004726L153.61448018621113,94.74576948553499L153.7406146484992,94.63725449432536L153.86674911078725,94.57194728095138L153.99288357307532,94.41562093695244L154.24515249765145,94.3600868376994L154.37128695993948,94.22004853491848L154.6235558845156,94.11306384654782L154.8758248090917,93.97529037642715L155.00195927137977,93.82625161489004L155.25422819595587,93.57504086107119L155.506497120532,93.26608783154472L155.63263158282007,93.10297417700261L155.75876604510813,92.97190265584901L155.8849005073962,92.68484889952131L156.26330389426033,92.3946421930766L156.3894383565484,92.1867992365284L156.51557281883646,91.96289044148801L156.64170728112452,91.65484470505967L156.89397620570062,91.4460324600095L157.0201106679887,91.19136395565567L157.27237959256482,90.95179336659464L157.39851405485285,90.6925910628072L158.02918636629315,90.32759627187781L158.1553208285812,90.04350376897783L158.40758975315734,89.81258701281497L158.53372421544537,89.58002196485234L158.78599314002147,89.33255268688538L158.91212760230954,89.03256125637253L159.0382620645976,88.6545438892211L159.16439652688567,88.38011120032074L159.41666545146177,88.08027034089302L159.54279991374983,87.9154491491696L159.6689343760379,87.75390269234528L159.92120330061402,87.59609253440058L160.04733776290206,87.44648630419833L160.1734722251901,87.30661622730074L160.29960668747816,87.16525011477296L160.67801007434235,87.09151392327465L160.93027899891845,86.9953214454975L161.30868238578265,86.82900439462657L161.56095131035875,86.72333159492713L161.6870857726468,86.59761689925305L161.81322023493485,86.44736679262358L161.9393546972229,86.28928768697847L162.19162362179904,86.19148128483131L162.44389254637517,86.1013635638013L162.5700270086632,86.05099064589137L162.69616147095124,85.94961773378824L162.94843039552737,85.86087404912126L163.07456485781543,85.83005376875559L163.2006993201035,85.87510584252324L163.32683378239156,85.86211028898737L163.4529682446796,85.87577780195211L163.8313716315438,85.86966302779089L163.95750609383182,85.8934576588256L164.0836405561199,85.88613462856046L164.71431286756018,85.75937748080248L164.84044732984825,85.65214460802636L164.9665817921363,85.52758683524746L165.09271625442435,85.37767389178552L165.34498517900045,85.21313008293689L165.4711196412885,85.05875362230213L165.59725410357657,84.7666570348957L165.72338856586464,84.52344255595276L165.84952302815267,84.23330132686125L166.480195339593,83.77162171557448L166.60632980188103,83.31872213828987L166.73246426416907,82.70580985464125L166.85859872645713,82.1519996711852L166.9847331887452,81.57980114048648L167.11086765103326,81.05397672269133L167.3631365756094,80.29544085324366L167.48927103789742,79.596400581312L167.6154055001855,78.87011165038278L167.74153996247355,78.05560350249613L167.86767442476162,77.26284139772089L167.99380888704965,76.40203712095426L168.11994334933772,75.5131147807027L168.24607781162578,74.57325588015316L168.37221227391382,73.52412602648472L168.62448119848995,72.52035105276246L168.750615660778,71.38050816689706L168.87675012306607,70.36749952209942L169.00288458535414,69.22289181027696L169.1290190476422,68.19384481417639L169.2551535099302,67.21393931437603L169.38128797221827,66.22384534148111L169.6335568967944,65.10266994846236L169.88582582137053,63.94288594245249L170.13809474594663,62.83627528054534L170.2642292082347,61.80591917907458L170.39036367052276,60.65636825485103L170.64263259509886,59.5673546621734L170.89490151967496,58.49964521276017L171.02103598196302,57.4111843805573L171.27330490653915,56.3891516546454L171.52557383111528,55.1090707471034L171.65170829340332,54.138039369466384L171.77784275569138,53.215197543679395L172.03011168026748,52.125649932060554L172.40851506713165,51.231779775392894L172.5346495294197,50.295205183795844L172.9130529162839,49.39086987563712L173.16532184086,48.44899445347528L173.54372522772417,47.57571844018469L173.92212861458836,46.84100036454609L174.0482630768764,45.97387176881554L174.17439753916446,45.351686877599604L174.30053200145252,44.591750605900245L174.4266664637406,44.0344968270785L174.55280092602862,43.4964006390434L174.6789353883167,43.036027384692176L174.80506985060475,42.60693550467994L174.9312043128928,42.07446534378573L175.05733877518085,41.67797399204778L175.30960769975698,41.24885718516683L175.43574216204505,40.952710843565285L175.5618766243331,40.779755625349225L175.94028001119725,40.61089662597712L176.0664144734853,40.53012470339132L176.31868339806144,40.52354509776475L176.4448178603495,40.52918979912121L176.57095232263754,40.6941510400888L176.6970867849256,40.917828000593005L176.94935570950173,41.189005703347306L177.32775909636587,41.59398082996921L177.45389355865393,42.11550238776482L177.580028020942,42.58956695124428L177.70616248323006,43.09819648802636L177.83229694551812,43.71166181082151L177.9584314078062,44.39757325665275L178.08456587009425,45.011541703220786L178.2107003323823,45.715249339280405L178.33683479467035,46.40655403906629L178.4629692569584,47.123297661261375L178.58910371924645,47.89184858309744L178.71523818153452,48.600136687317274L178.84137264382258,49.317306383275564L178.96750710611062,49.97979282653429L179.21977603068675,50.703990184478755L179.3459104929748,51.42447821302204L179.47204495526287,52.09848932886965L179.59817941755094,52.7470442585586L180.8595240404315,53.55809483499809L181.23792742729566,54.39768259050638L181.36406188958372,55.196548143187854L181.49019635187176,56.01082214920906L181.61633081415982,56.796283848130386L181.86859973873595,57.6067243785032L181.99473420102402,58.34466406617264L182.12086866331208,59.08807652649634L182.24700312560014,59.83453595782086L182.37313758788815,60.589887889081965L182.62540651246428,61.35736471533606L182.75154097475234,62.068138484186605L182.8776754370404,62.788117548514435L183.00380989932847,63.49624642033065L183.1299443616165,64.22438322482482L183.25607882390457,64.96074229013797L183.38221328619264,65.64111660283596L183.5083477484807,66.30772248673561L183.63448221076877,66.98468942619107L183.7606166730568,67.64617298800809L183.88675113534484,68.33107329461028L184.13902005992097,69.02560941847872L184.26515452220903,69.6890909711043L184.51742344678516,70.35902778729243L184.64355790907322,71.002033841021L184.76969237136126,71.63553563418499L185.02196129593736,72.29363307219566L185.14809575822542,72.9006354225208L185.2742302205135,73.50190963405629L185.40036468280155,74.0835837939089L185.5264991450896,74.66182319422145L185.65263360737765,75.23461890429203L186.1571714565299,75.8133251392765L186.40944038110598,76.41570000722122L186.78784376797017,77.04275494212894L186.91397823025824,77.6342537308549L187.16624715483437,78.23248863959866L187.2923816171224,78.82925343285471L187.41851607941047,79.41467699708993L187.67078500398657,79.97997426205643L187.79691946627463,80.51621522922099L187.9230539285627,81.05374179552092L188.04918839085073,81.57125623436731L188.1753228531388,82.08050623409466L188.30145731542686,82.55029272031746L188.42759177771492,83.0283901045882L188.553726240003,83.48048937119215L188.67986070229105,83.92120844876462L189.0582640891552,84.35243284200769L189.18439855144325,84.74574280780725L189.31053301373132,85.11978664654127L189.56280193830744,85.46290187812616L189.68893640059548,85.79729419124229L189.81507086288354,86.13288279351364L189.9412053251716,86.46791376743217L190.06733978745967,86.7946737416327L190.4457431743238,87.15642226863181L190.57187763661187,87.51191888739312L190.69801209889994,87.86313855704708L190.824146561188,88.20015768356046L190.95028102347607,88.52957287728412L191.07641548576413,88.8503039275664L191.2025499480522,89.17354542405388L191.4548188726283,89.495894497793L191.58095333491633,89.82240757424461L191.7070877972044,90.14431190383674L191.83322225949246,90.44140065174544L191.95935672178052,90.75019176037479L192.0854911840686,91.0435077795622L192.21162564635662,91.34210855868515L192.3377601086447,91.62670035478723L192.71616349550888,91.92627451802292L192.84229795779694,92.21390796600234L193.09456688237302,92.50758846829132L193.59910473152527,92.82626262642226L193.72523919381334,93.14336911212202L193.97750811838944,93.46461445885038L194.1036425806775,93.77700834046395L194.48204596754167,94.1170899874096L194.73431489211777,94.4555535032241L194.86044935440583,94.78667092935048L194.9865838166939,95.10436347204342L195.23885274127002,95.4303473550454L195.3649872035581,95.75187026270544L195.4911216658461,96.06442013163101L195.61725612813416,96.36973086705035L195.8695250527103,96.68506669694642L195.99565951499835,96.99686261231706L196.12179397728642,97.31100835680232L196.24792843957445,97.61824232863336L196.37406290186252,97.9159874884006L196.62633182643864,98.22089155077943L196.7524662887267,98.51609324263087L196.87860075101474,98.80933374718157L197.13086967559084,99.10206877563606L197.2570041378789,99.38747624721866L197.6354075247431,99.68153364305014L197.8876764493192,99.974663613554L198.01381091160727,100.25955274283906L198.26607983618337,100.54772278712456L198.39221429847143,100.82628903724567L198.5183487607595,101.10248623655576L198.64448322304756,101.37364713512324L198.7706176853356,101.63576376300047L198.89675214762366,101.89082138216672L199.02288660991172,102.13813967652023L199.40128999677592,102.3982264300253L199.52742445906392,102.6541965563903L199.653558921352,102.90881705864027L199.77969338364005,103.16474573793592L199.90582784592812,103.41352007926714L200.03196230821618,103.66221606671624L200.15809677050424,103.90565906932434L200.41036569508034,104.15931167173864L200.5365001573684,104.40958414428366L200.66263461965647,104.66255276314523L200.7887690819445,104.91408041926424L200.91490354423257,105.16035707894132L201.04103800652064,105.40548181887554L201.4194413933848,105.67444822164971L201.67171031796093,105.94893528132809L201.797844780249,106.21731310155634L201.92397924253706,106.47687321387137L202.05011370482507,106.73298427526827L202.17624816711313,106.98547142575444L202.3023826294012,107.23501508655988L202.42851709168926,107.4801004187921L202.55465155397732,107.7210626329657L202.6807860162654,107.96438601332753L202.80692047855342,108.20034572604095L203.18532386541762,108.45763331073267L203.31145832770568,108.71258091205873L203.68986171456982,108.98342911895259L203.81599617685788,109.24895616243589L204.068265101434,109.52541278445875L204.19439956372207,109.79210452778845L204.32053402601014,110.05550374734548L204.57280295058624,110.32670954962002L204.69893741287427,110.59436769541765L204.82507187516234,110.85797869441453L205.07734079973847,111.12684247158137L205.20347526202653,111.3963037904823L205.32960972431457,111.66235719498985L205.5818786488907,111.92927889576356L205.70801311117876,112.19250815240927L205.83414757346682,112.45007522511924L206.0864164980429,112.71610656540356L206.21255096033096,112.97417860524213L206.33868542261902,113.23214082041557L206.59095434719515,113.49091824162535L206.71708880948322,113.74730981725935L206.96935773405932,114.00762491374064L207.09549219634738,114.26459828353501L207.22162665863544,114.51727202186561L207.34776112092348,114.7664660106984L207.47389558321154,115.01080410028291L207.6000300454996,115.25320122933479L207.8522989700757,115.49875161685871L207.97843343236377,115.74006912635706L208.35683681922796,115.99864343725524L208.60910574380407,116.25958681233902L208.98750913066823,116.53446392398968L209.49204697982046,116.83164289379962L210.12271929126075,117.16027602675905L210.50112267812491,117.49701292066277L210.62725714041298,117.82399010489846L210.75339160270104,118.1449993878297L210.8795260649891,118.45518471519821L211.00566052727714,118.75713615536257L211.1317949895652,119.05043576863594L211.3840639141413,119.34639785839317L211.51019837642937,119.6329361227637L211.7624673010055,119.91664820733979L211.88860176329354,120.19152311217249L212.14087068786966,120.46748004832187L212.26700515015773,120.73645167980362L212.3931396124458,120.99538993924114L212.51927407473386,121.25074490809573L212.77154299930993,121.50205075981144L212.897677461598,121.75158521336157L213.02381192388606,121.98933859756414L213.14994638617412,122.2246872852396L213.2760808484622,122.44881988095425L213.40221531075025,122.67306668072908L213.5283497730383,122.88994671442721L213.65448423532635,123.10026293032095L213.78061869761441,123.30999535791635L214.03288762219051,123.52193937693897L214.28515654676661,123.73704205177523L214.41129100905468,123.94674071152386L214.6635599336308,124.15742392372627L215.041963320495,124.37786902976963L215.29423224507107,124.59472621296733L215.79877009422333,124.82755089118976L215.92490455651136,125.05140951345564L216.05103901879943,125.2633790408198L216.1771734810875,125.47724016150369L216.55557686795166,125.68101362869508L216.68171133023972,125.87995080795443L216.80784579252776,126.07795592442679L217.18624917939195,126.27484214425408L217.31238364168001,126.47502026367832L217.56465256625611,126.67553510721925L217.69078702854418,126.86743736052554L217.81692149083221,127.05965005799561L218.1953248776964,127.26177875638476L218.32145933998447,127.46235911957459L218.69986272684864,127.67368792139652L218.8259971891367,127.88327943121641L218.95213165142476,128.08172325034118L219.07826611371283,128.26728882286645L219.20440057600084,128.44828511260866L219.3305350382889,128.62416634323517L219.45666950057696,128.801014684456L219.7089384251531,128.9701181622816L219.83507288744116,129.13635629837097L219.96120734972922,129.30179474726148L220.08734181201726,129.47287839803639L220.21347627430532,129.62477365935243L220.3396107365934,129.78397637139275L220.46574519888142,129.93243243928237L220.5918796611695,130.0861161463554L220.71801412345755,130.2329025485466L221.22255197260978,130.39468298273653L221.4748208971859,130.55758132892495" style="fill: none;" fill="none"></path></g></g></g></g><g opacity="0.2"><g><g><g><path stroke="rgb(255, 112, 67)" stroke-width="2px" d="M32.77766531425241,160.845569081876L33.029934238828524,160.8117935670764L33.15606870111658,160.79487042648302L33.408337625692695,160.75576979855353L33.66060655026881,160.72421443016674L33.78674101255687,160.71067721689963L33.912875474844924,160.6861232530712L34.03900993713298,160.66046669135895L34.16514439942104,160.62546428270565L34.291278861709095,160.58431901987666L34.417413323997145,160.53817498618238L34.54354778628521,160.49437220261183L34.66968224857327,160.44853133593966L34.795816710861324,160.39650520962545L34.92195117314938,160.34829841903752L35.174220097725495,160.2577167186178L35.42648902230161,160.17376549341625L35.55262348458967,160.13367038620802L36.18329579602995,159.94862748462174L36.30943025831801,159.89730477048033L36.43556472060607,159.8636225072806L36.561699182894124,159.8315362062853L36.68783364518218,159.80767182615415L36.940102569758295,159.7207892986995L37.31850595662247,159.5584929568855L37.444640418910524,159.49515764678443L37.69690934348664,159.38323821829738L37.823043805774695,159.34176338609484L37.94917826806275,159.293215734737L38.07531273035081,159.24928902460647L38.327581654926924,159.14811342944887L38.57985057950304,159.046331834807L38.705985041791095,159.00394064306047L39.08438842865527,158.8530701906756L39.210522890943324,158.8064309804613L39.33665735323138,158.7576269447063L39.46279181551944,158.70907985094826L39.588926277807495,158.6703340237842L39.96732966467167,158.520405692055L40.093464126959724,158.46456786913208L40.34573305153584,158.37993916014938L40.471867513823895,158.32839195632047L40.59800197611195,158.28985690188833L40.72413643840001,158.2349446946664L40.850270900688066,158.18342269434936L40.976405362976124,158.13484838972016L41.10253982526418,158.0802272496042L41.354808749840295,157.97693768200946L41.48094321212835,157.94248916513723L41.607077674416416,157.8947151277695L41.733212136704466,157.84018521098412L41.98548106128058,157.76160489876762L42.237749985856695,157.67173475147806L42.36388444814475,157.63581417108134L42.616153372720866,157.56283483753558L42.74228783500892,157.506398598486L42.99455675958504,157.4011188456141L43.120691221873095,157.34969765934449L43.24682568416116,157.2955509251553L43.37296014644921,157.22699447338087L43.499094608737266,157.15341716978827L43.62522907102532,157.06785325438767L43.87749799560144,156.90110057481317L44.003632457889495,156.84164437513908L44.12976692017755,156.75554382567182L44.25590138246561,156.63593554174844L44.8865736939059,156.23544281671815L45.01270815619395,156.20690351969708L45.264977080770066,156.08125576060462L45.51724600534618,156.04058532190226L45.64338046763424,155.9983031966805L45.769514929922295,155.98028023226237L46.147918316786466,156.04403262702868L46.652456165938695,156.00757318216603L47.030859552802866,156.0715414795826L47.28312847737898,156.03480769560858L47.40926293966704,155.99900443421396L47.535397401955095,155.96713470498872L48.03993525110732,155.72316961707588L48.16606971339539,155.66329722489624L48.29220417568344,155.6175539660725L48.418338637971495,155.49393988504312L48.67060756254761,155.28556750883288L48.796742024835666,155.21815948964743L49.175145411699845,154.76294704085305L49.55354879856401,154.4572141674528L49.679683260852066,154.34421455659466L49.93195218542818,154.18965011692305L50.184221110004295,154.05206972168514L50.31035557229235,154.00200840985624L50.43649003458041,153.86141608343127L50.562624496868466,153.90612265266986L50.68875895915652,153.6306438072568L50.81489342144459,153.76806762846527L51.067162346020694,153.4548178634132L51.19329680830875,153.38677373435326L51.31943127059681,153.27847981989504L51.44556573288487,153.3723867668406L51.69783465746098,153.16988613977364L51.82396911974904,153.1666351097838L51.950103582037094,153.12702589505864L52.20237250661321,153.1070629293472L52.328506968901266,153.07027650795018L52.45464143118933,153.1126300059489L52.70691035576544,153.05968478785158L52.833044818053494,153.05509551829405L53.085313742629616,152.97771672216942L53.211448204917666,153.03639495857482L53.46371712949378,152.99892068204L53.58985159178184,152.98428212548862L53.715986054069894,152.96079423675585L53.96825497864601,152.89429354399732L54.47279282779824,152.53633587146706L54.598927290086294,152.42699366934747L54.72506175237436,152.3198131702096L54.85119621466241,152.31077202369013L55.10346513923852,151.74345033942996L55.22959960152658,151.64228745754824L55.481868526102694,150.99731219197224L55.734137450678816,150.27056067505208L55.860271912966866,149.68603815154825L55.98640637525492,149.34079197059185L56.11254083754298,148.84264745822566L56.3648097621191,147.98972849918093L56.49094422440715,146.94500947665267L57.37388546042356,142.7786548480949L57.87842330957578,140.5240138048833L58.25682669643995,139.99355348343596L58.38296115872801,139.11678531097516L58.509095621016066,139.23320680040794L58.63523008330412,138.90404447473605L59.13976793245635,138.3110437574909L59.26590239474441,138.02732804753853L59.392036857032465,137.06428267798753L59.51817131932052,137.71530410993046L59.896574706184694,136.66774623519925L60.02270916847275,136.02056822729477L60.14884363076081,135.17605519705472L60.27497809304887,135.07703617496048L60.40111255533692,134.23965150081776L60.52724701762498,134.14952731105024L60.779515942201094,133.69323757940384L60.90565040448915,133.35853137328274L61.03178486677721,132.82477362954057L61.28405379135333,131.51194990769716L61.41018825364138,131.58633996878723L61.53632271592944,131.02650439666886L61.662457178217494,129.99660593127317L61.78859164050555,131.01774160397946L61.914726102793615,130.94455060554208L62.29312948965779,131.32358822774296L62.41926395194584,130.4397595033229L62.67153287652195,130.0662265065439L63.17607072567418,130.25293055375357L63.30220518796224,130.30660645065484L63.55447411253836,129.83922538947124L63.68060857482641,129.45650314766058L63.806743037114465,129.48544124007282L63.93287749940253,128.3256871443039L64.05901196169059,127.85304234082064L64.18514642397864,126.80781657157608L64.56354981084282,124.93829589548048L64.94195319770698,122.455443966627L65.06808765999503,121.86086591101136L65.1942221222831,122.04415833948309L65.32035658457114,121.09245945714687L65.57262550914726,120.84278677747773L66.07716335829949,118.27404484884899L66.3294322828756,118.37983714747529L66.58170120745172,116.57126168561277L66.70783566973978,116.17395798547233L66.83397013202783,115.76481354163676L66.96010459431588,114.68287718457069L67.08623905660394,114.16829373735467L67.33850798118006,112.22099100894472L67.46464244346812,111.50088965051641L67.71691136804424,109.21464117303486L67.96918029262034,105.67432661232965L68.22144921719647,102.08165298245781L68.85212152863674,95.84530671408181L69.10439045321286,92.2392399826163L69.23052491550091,90.74597160610129L69.48279384007704,86.02585433658342L69.60892830236509,82.89085507023071L69.73506276465314,80.44518835816544L69.8611972269412,77.96810334968912L69.98733168922926,76.12759213878266L70.11346615151731,73.91181714125634L70.23960061380538,72.22191676425864L70.36573507609344,69.90653391922824L70.49186953838148,67.16620469754672L70.61800400066954,64.82043846137095L71.12254184982177,57.14711552565626L71.24867631210982,55.20351347573089L71.50094523668595,52.31246636097522L71.87934862355011,50.449851001049L72.38388647270234,50.10081670995626L72.5100209349904,50.43432742206353L72.63615539727846,51.085739619960236L72.76228985956652,51.39852367764276L73.01455878414262,52.04812300700506L73.14069324643069,52.429118027613654L73.26682770871875,52.99234202231747L73.3929621710068,53.47467924890985L73.51909663329486,54.010924333928585L73.64523109558293,54.417535044182614L74.0236344824471,55.53456182703357L74.14976894473514,55.99901303572359L74.40203786931126,56.50031400915017L74.65430679388737,57.10920230654324L74.9065757184635,57.202900488116256L75.1588446430396,57.5774790960775L75.41111356761571,58.10421732720718L75.53724802990378,58.48940906710013L75.66338249219183,59.07324551978556L75.78951695447988,59.380590971864905L75.91565141676794,59.90242589321848L76.04178587905601,60.39488377958162L76.16792034134407,60.69125209856685L76.29405480363211,61.21122419044218L76.42018926592017,61.65991628998283L76.67245819049629,62.119292894232075L76.92472711507241,62.682145750495806L77.05086157736045,62.96401825848355L77.30313050193658,63.05738098800494L77.5553994265127,63.15602530302023L77.68153388880074,63.48945750507285L77.8076683510888,63.27694506171997L77.93380281337686,63.49625219343798L78.05993727566492,63.54593478346921L78.18607173795299,63.36593264001462L78.31220620024102,63.73014078348581L78.43834066252909,63.91819377617975L78.56447512481715,63.83931972037814L78.6906095871052,64.28844719385815L78.81674404939326,64.40137320154008L79.06901297396936,64.35710780527896L79.19514743625743,65.09212607408872L79.44741636083356,65.41342490406073L79.69968528540966,66.13005040825183L79.82581974769772,65.5597105476866L79.95195420998577,66.17898358412513L80.07808867227384,66.42026639386444L80.2042231345619,66.06404486413336L80.456492059138,66.79911309388697L80.58262652142606,67.01650743518287L80.83489544600218,66.19942474744208L80.96102990829023,66.34955024646762L81.08716437057828,66.53190769156136L81.21329883286634,67.2910570962561L81.33943329515441,66.71726279328678L81.59170221973051,67.54921243046515L81.71783668201857,67.06027322200538L81.84397114430664,67.88235914140998L81.97010560659469,67.30157744357777L82.60077791803498,68.27538047493375L82.72691238032304,68.73176655982903L83.10531576718721,70.32100990950158L83.23145022947526,70.10765526738075L83.48371915405139,70.45172915047583L83.60985361633942,70.79111384212564L83.86212254091555,71.41209982521082L84.11439146549166,71.51895200957476L84.74506377693196,72.53509337221433L84.87119823921999,74.02527130748766L85.24960162608417,73.24460301054405L85.37573608837224,74.5073944157492L85.50187055066029,74.69441250317743L85.62800501294834,74.66020353118783L85.7541394752364,74.8094654196123L85.88027393752446,75.39756282708137L86.13254286210056,75.3922312806436L86.38481178667669,76.99749781874024L86.6370807112528,77.05949221279442L86.8893496358289,76.90689721568663L87.26775302269309,77.1232923381053L87.39388748498115,78.09905812082725L87.77229087184531,78.15979635400723L87.89842533413338,79.24108678744193L88.02455979642144,79.14825221646996L88.15069425870948,78.62800890804225L88.4029631832856,80.03410971207465L88.52909764557366,80.1363083913818L88.90750103243782,80.6414920438742L89.03363549472589,80.50290752288062L89.28590441930201,81.76923901782223L89.66430780616618,80.81000317024065L90.04271119303036,81.80544642756628L90.16884565531839,81.53406571778939L90.29498011760646,82.17746275283521L90.42111457989452,81.54939659027711L90.54724904218257,80.99762792627291L90.79951796675869,82.47254636183544L90.92565242904675,82.10693931193613L91.0517868913348,82.53442655944652L91.17792135362286,81.7501610745449L91.30405581591093,82.80240278776311L91.43019027819896,83.1982504832539L91.55632474048703,80.74890807317597L91.80859366506314,82.50049594128699L92.06086258963926,82.43356255106822L92.1869970519273,82.89646497049857L92.5654004387915,82.1713889295172L92.69153490107955,82.59888331430528L93.19607275023178,83.30173387254605L93.57447613709594,84.45160640734696L93.700610599384,83.82067105915567L93.95287952396012,83.94414596327003L94.07901398624817,84.56343327426393L94.33128291082429,83.99770409508935L94.45741737311235,84.32376348928358L94.58355183540041,83.72873578517319L94.96195522226458,84.41071694343533L95.08808968455263,84.065037172859L95.34035860912874,83.60670261115312L95.84489645828099,83.21933400156337L96.22329984514515,84.39983259495125L96.3494343074332,83.22308820963066L96.47556876972126,84.00645439754277L96.60170323200933,84.0124639853615L96.72783769429736,84.1571865651723L96.85397215658543,84.36538809279773L96.98010661887349,83.87632041333947L97.2323755434496,83.63403838472294L97.35851000573766,83.68915958035734L97.48464446802572,83.88368608392017L97.61077893031377,82.46133369857742L97.73691339260183,83.16382739293346L97.8630478548899,83.7074167366998L97.98918231717794,83.45764770378177L98.49372016633018,81.50119855400634L98.61985462861823,82.51036679633845L99.37666140234657,82.89159734711093L99.62893032692268,82.39412195452859L99.75506478921075,82.9711708561266L99.88119925149881,82.28219516572389L100.00733371378685,83.57626925906388L100.13346817607491,83.38650331972329L100.25960263836298,82.32898002101113L100.38573710065103,81.22367978541222L100.51187156293909,82.5683714521614L100.63800602522714,82.77734380577785L100.7641404875152,82.57134055968231L100.89027494980326,84.07036871929677L101.01640941209132,82.06220285534718L101.14254387437938,82.13645195520277L101.26867833666742,82.69849116180932L101.39481279895548,82.66601654829948L101.52094726124355,82.92200928736708L101.6470817235316,82.88305402571066L101.89935064810771,81.48885106359491L102.02548511039576,81.9745213988706L102.15161957268383,82.53305620212916L102.40388849725996,82.93327904884664L102.65615742183606,82.98173402711441L102.90842634641217,82.76753718622564L103.03456080870023,82.59266674543339L103.4129641955644,82.12494666355929L103.53909865785246,82.97985692308076L103.66523312014051,82.11582522266576L103.91750204471663,83.42929843677933L104.04363650700469,82.89330315647992L104.16977096929274,83.99720448565073L104.42203989386887,82.0908590252905L104.67430881844497,81.28352585888037L104.80044328073303,82.29115958650813L105.05271220530915,82.09900979641758L105.1788466675972,82.8131372534156L105.30498112988525,82.34684462708042L105.43111559217331,81.18808618154988L105.55725005446138,83.15674721346055L105.68338451674944,82.40669070054855L105.80951897903749,83.46480639330933L105.93565344132554,81.97357927821494L106.0617879036136,82.17525733402762L106.31405682818972,82.4560592503612L106.44019129047778,81.06037887176271L106.56632575276582,82.12266273469707L106.94472913963,81.19500934091353L107.07086360191806,82.65396882355121L107.19699806420611,82.7997263086277L107.44926698878223,81.45589111520185L107.57540145107029,81.41208964199087L107.70153591335836,82.28589941284731L107.82767037564639,81.91619556555139L108.07993930022252,83.32961207922064L108.33220822479863,82.74276369534813L108.4583426870867,82.62884560606666L108.58447714937473,82.74085090492602L108.83674607395086,82.52322817074388L109.08901499852698,82.26523699392182L109.34128392310309,81.25267854468485L109.46741838539114,81.91585297622206L109.5935528476792,81.62634358110121L109.97195623454337,81.52026936000598L110.4764940836956,83.76728422200104L110.60262854598366,82.7742961882023L110.72876300827171,83.18474675385596L110.85489747055978,83.69402006646727L110.98103193284784,84.87104994289564L111.23330085742394,83.19634483010948L111.359435319712,85.42740787645738L111.73783870657618,85.2765971987732L111.86397316886422,83.84631529791191L112.11624209344035,84.89472429300821L112.36851101801646,87.16812567063971L112.49464548030451,85.00053443482874L112.87304886716869,85.0931477501922L113.12531779174479,84.04225498245823L113.25145225403286,85.75126185184402L113.37758671632092,86.5425290061639L113.62985564089703,85.27444174090947L113.75599010318508,85.47651234699535L113.88212456547315,85.74363210198864L114.0082590277612,85.63358241721757L114.13439349004926,84.85998002519152L114.26052795233733,85.60057250788066L114.38666241462536,85.2994578992286L114.51279687691343,86.99534645221195L114.63893133920149,85.37258644648615L115.1434691883537,87.08099378454561L115.26960365064177,88.19604354147518L115.5218725752179,86.17827090174885L115.774141499794,86.2831746093022L115.90027596208206,88.14234980137968L116.02641042437011,86.3624340780993L116.15254488665818,86.90932798143818L116.27867934894624,86.28296049097138L116.40481381123428,85.43029847392364L116.53094827352234,84.02641022597652L116.6570827358104,83.92229875624724L116.78321719809847,84.99915694023372L117.03548612267457,82.5358611522631L117.16162058496263,86.13444801670481L117.28775504725068,86.4828970510266L117.41388950953875,86.32408548504691L117.54002397182681,85.95475991346879L117.79229289640291,87.63038573507754L117.91842735869098,85.1954178022763L118.04456182097903,86.5802209696684L118.29683074555516,86.28413814179096L118.42296520784319,87.23760706899539L118.54909967013126,87.25495779107065L118.67523413241932,85.95861404342381L118.80136859470738,85.99055336110656L118.92750305699543,86.99822991240053L119.05363751928348,85.0887654616878L119.17977198157155,85.42410331688485L119.3059064438596,83.9587773825437L119.68430983072376,84.19160251821505L119.93657875529989,83.22907638561632L120.188847679876,86.63262286250122L120.56725106674017,86.26961378168271L120.69338552902823,85.48706838070548L120.8195199913163,86.90339690367406L120.94565445360433,87.38767546979935L121.0717889158924,85.12807044995125L121.19792337818046,86.43742545483512L121.32405784046851,83.80184292059765L121.45019230275658,85.3829783228093L121.57632676504464,86.2995760734441L121.70246122733269,83.87480731046824L121.82859568962074,85.03975377575986L121.9547301519088,87.11279749395217L122.08086461419687,84.73352887627857L122.45926800106103,85.26799677915137L122.58540246334908,84.40360821485163L122.96380585021325,85.58697599387268L123.08994031250131,84.72284437156993L123.34220923707744,83.56514224313821L123.46834369936549,84.67030687046093L123.59447816165354,82.72532018866283L123.7206126239416,82.49128885306112L123.84674708622966,81.34731884691355L123.97288154851772,81.74886922728221L124.35128493538188,85.61466149404954L124.47741939766995,84.3671153139998L124.603553859958,82.78257543032788L125.10809170911023,82.6800555735245L125.23422617139829,83.80519744111405L125.4864950959744,83.1920696007705L125.61262955826246,85.00610151143043L125.73876402055052,84.84535574319554L125.86489848283857,87.15313025020363L126.1171674074147,84.32135108942285L126.49557079427886,85.2275284146237L126.62170525656693,84.32210764085846L126.87397418114303,84.37108364039793L127.00010864343109,86.19040427382946L127.12624310571914,85.66761295726482L127.2523775680072,87.20237746629549L127.37851203029527,84.47032034946186L127.5046464925833,84.38627890460945L127.63078095487137,82.95829520716578L127.75691541715943,83.24838272177986L128.1353188040236,80.6801832262559L128.26145326631166,82.85284192922995L128.51372219088776,81.13112356827031L128.7659911154639,81.89479800702337L128.89212557775193,81.15330622734471L129.01826004004,83.56249431311356L129.14439450232805,82.57796395338278L129.39666342690418,82.70240952726358L129.52279788919222,81.8215338514896L129.64893235148028,84.01524752366235L129.77506681376835,84.85150807656818L129.9012012760564,82.84382754750185L130.02733573834448,83.1773382596091L130.1534702006325,83.52767153524223L130.27960466292058,83.56801142877138L130.65800804978474,83.63904875366445L130.7841425120728,84.13584610486585L131.16254589893697,85.60928712394559L131.28868036122503,84.04907108265645L131.4148148235131,85.24579984552156L131.6670837480892,86.22881710238111L131.91935267266533,86.46827990630833L132.0454871349534,86.09510020477519L132.17162159724143,88.83502973890582L132.2977560595295,87.01350368666668L132.42389052181755,87.14780584104356L132.55002498410562,89.54048540350507L132.67615944639365,87.28491294555434L132.80229390868172,86.96157999143941L133.05456283325782,90.83727879964667L133.18069729554588,88.60957027381517L133.30683175783395,89.14408813763181L133.55910068241005,89.67980506410115L133.93750406927424,87.852112403934L134.0636385315623,89.44655882904583L134.18977299385034,89.31996493457899L134.3159074561384,88.09328815450789L134.44204191842647,90.59519661480559L134.69431084300257,90.3573753847481L134.82044530529063,88.99057956897913L134.9465797675787,90.80339100515332L135.1988486921548,90.88609777907685L135.32498315444286,91.3913242552354L135.57725207901896,91.13439653278982L135.95565546588315,91.56452457304714L136.20792439045928,92.1461770187581L136.33405885274732,92.49541115362626L136.46019331503535,93.38417352125263L136.83859670189955,93.39409433724795L136.9647311641876,93.60294535714357L137.2170000887637,92.9101726350074L137.34313455105178,92.37093703063468L137.5954034756279,92.93236243135951L137.72153793791594,94.77697043966256L137.847672400204,94.24977542276042L138.0999413247801,94.71142881859423L138.22607578706817,95.43613372113546L138.60447917393236,95.9724930025973L138.73061363622043,97.27078522705473L138.98288256079653,96.2385564404918L139.10901702308456,97.3627633247034L139.23515148537263,97.10821945300775L139.3612859476607,98.0856910450987L139.6135548722368,98.7320857367762L139.73968933452485,97.83044058291132L139.86582379681292,98.80009685592682L139.99195825910098,98.6835451111761L140.2442271836771,99.40501682692175L140.49649610825318,100.17464375527199L140.7487650328293,100.33631736960716L140.87489949511738,100.34949278423115L141.00103395740544,100.19348616838539L141.1271684196935,101.05615464876077L141.25330288198154,100.86292712973834L141.75784073113377,100.70268810821976L141.88397519342183,101.07453313882402L142.0101096557099,101.92931849598585L142.13624411799793,101.0039525997034L142.51464750486213,101.43977261892206L142.6407819671502,101.52335370936316L142.76691642943825,102.04591663304159L142.8930508917263,101.12990413917774L143.01918535401433,101.19673760750877L143.27145427859045,102.1919703151424L143.39758874087852,102.84624099275575L143.52372320316658,102.15283662154363L143.64985766545465,102.00528054248812L143.90212659003075,102.72421495601338L144.15439551460688,101.51917483327306L144.2805299768949,102.80440583954962L144.40666443918298,102.45723437793512L144.532798901471,102.75335646083991L144.65893336375908,102.92021887605895L144.9112022883352,102.88036074877418L145.03733675062327,102.26012774848576L145.16347121291133,102.88183816525692L145.41574013748743,102.29529668432527L145.5418745997755,102.83254098822123L145.7941435243516,102.28805234746538L145.92027798663966,100.77807203522877L146.4248158357919,101.01046893423846L146.55095029807995,100.05168273515163L146.80321922265608,99.4586391942403L146.9293536849441,100.29178789407135L147.05548814723215,99.23443589002389L147.18162260952022,98.72115142734827L147.30775707180828,100.25523789499796L147.43389153409635,99.20165437357316L147.5600259963844,98.3570503430425L147.8122949209605,97.4440854667542L147.93842938324858,97.34251486788418L148.06456384553664,98.2694045729544L148.4429672324008,96.11855739061465L148.56910169468887,95.19799845085943L148.6952361569769,94.36598457818181L148.82137061926497,94.50583239732728L149.0736395438411,93.61997490172257L149.83044631756943,94.4810089455059L149.9565807798575,91.83190127003743L150.08271524214555,93.730459960433L150.20884970443362,93.434669760941L150.33498416672165,92.91630355654694L150.83952201587388,91.74994391027181L151.21792540273805,92.32045506550169L151.3440598650261,93.34812313161785L151.59632878960224,93.01780278264002L151.9747321764664,93.2957783370066L152.10086663875447,93.28993290657482L152.35313556333057,91.86476843382047L152.47927002561863,93.62958881477702L152.6054044879067,92.98867555236887L152.73153895019473,92.45322984245193L152.98380787477086,93.35134918113576L153.10994233705892,92.4784529818242L153.236076799347,93.47772895727176L153.36221126163505,93.7001122556761L153.4883457239231,92.03501391866669L153.61448018621113,92.84181178924975L153.7406146484992,92.6983168212024L153.86674911078725,93.40504292123127L153.99288357307532,91.62239362059391L154.24515249765145,93.3678077434992L154.37128695993948,91.71785470975748L154.6235558845156,92.20146950905715L154.8758248090917,91.5135644103086L155.00195927137977,91.16323827195318L155.25422819595587,89.08642607113819L155.506497120532,87.74573841717559L155.63263158282007,90.18847170810844L155.75876604510813,90.62992660806688L155.8849005073962,87.55579404589263L156.26330389426033,87.20925066471526L156.3894383565484,88.47307697518609L156.51557281883646,87.9621049904835L156.64170728112452,86.1507067352928L156.89397620570062,87.71499102486781L157.0201106679887,86.64096634012606L157.27237959256482,86.67116416205137L157.39851405485285,86.06118386117106L158.02918636629315,83.80589689432811L158.1553208285812,84.96736036810483L158.40758975315734,85.68658384137672L158.53372421544537,85.42456723993497L158.78599314002147,84.91079030509844L158.91212760230954,83.67233701683148L159.0382620645976,81.90015810257191L159.16439652688567,83.47656862694983L159.41666545146177,82.72273649413744L159.54279991374983,84.97043653479115L159.6689343760379,84.86740279399376L159.92120330061402,84.7763525424454L160.04733776290206,84.77333347398063L160.1734722251901,84.80742824952712L160.29960668747816,84.63933108526693L160.67801007434235,85.77400121857862L160.93027899891845,85.27656151238472L161.30868238578265,83.85726388189522L161.56095131035875,84.83517798520323L161.6870857726468,84.3513562048504L161.81322023493485,83.76270922699888L161.9393546972229,83.46474215781006L162.19162362179904,84.44388387288153L162.44389254637517,84.49114692577432L162.5700270086632,85.15093115040663L162.69616147095124,84.13829419111504L162.94843039552737,84.27520858912808L163.07456485781543,85.27935932524097L163.2006993201035,86.68009289644715L163.32683378239156,85.62990671920493L163.4529682446796,86.1199878920958L163.8313716315438,85.76040470457065L163.95750609383182,86.31861833033295L164.0836405561199,85.7552872764637L164.71431286756018,83.49449033124063L164.84044732984825,83.73611573030927L164.9665817921363,83.30199795182074L165.09271625442435,82.69904073219179L165.34498517900045,82.27307372483035L165.4711196412885,82.30036667473402L165.59725410357657,79.5474972561433L165.72338856586464,80.17770460200974L165.84952302815267,79.04907974290528L166.480195339593,75.5223652648469L166.60632980188103,75.2263466724687L166.73246426416907,71.75433942793843L166.85859872645713,72.2565611101876L166.9847331887452,71.35580097875682L167.11086765103326,71.6585857103894L167.3631365756094,66.74197918594274L167.48927103789742,67.10600176019385L167.6154055001855,65.89283584679838L167.74153996247355,63.502033388370506L167.86767442476162,63.09782794069952L167.99380888704965,61.02125127004845L168.11994334933772,59.62991749356587L168.24607781162578,57.77992797788119L168.37221227391382,54.77835298074892L168.62448119848995,54.58497557889493L168.750615660778,51.013881508132314L168.87675012306607,52.26713751033762L169.00288458535414,48.77112760092086L169.1290190476422,49.80691075177563L169.2551535099302,49.70506179907554L169.38128797221827,48.53292095786787L169.6335568967944,45.06959264301409L169.88582582137053,43.219952853936434L170.13809474594663,43.06343949137437L170.2642292082347,43.395594120719664L170.39036367052276,40.11627909938474L170.64263259509886,40.10894197791484L170.89490151967496,39.42189335248963L171.02103598196302,37.96264837874418L171.27330490653915,38.127548042597226L171.52557383111528,32.23668170102215L171.65170829340332,36.78772399923568L171.77784275569138,36.72592944895692L172.03011168026748,32.65769543766359L172.40851506713165,35.26017527795412L172.5346495294197,33.56056106601423L172.9130529162839,33.23227484117933L173.16532184086,31.619635495224287L173.54372522772417,31.97208854233267L173.92212861458836,33.71311323945588L174.0482630768764,30.480083463969606L174.17439753916446,34.23453419870319L174.30053200145252,31.01326665685741L174.4266664637406,34.07752836398021L174.55280092602862,33.88173856226547L174.6789353883167,34.81011282109614L174.80506985060475,34.93995417691397L174.9312043128928,32.56032869535562L175.05733877518085,34.593496443068915L175.30960769975698,33.58143046599287L175.43574216204505,35.66119036249569L175.5618766243331,37.689404839489015L175.94028001119725,37.59373676927231L176.0664144734853,39.086898086621915L176.31868339806144,40.40598120100333L176.4448178603495,40.63004889694358L176.57095232263754,43.64166604379196L176.6970867849256,44.91447104960244L176.94935570950173,46.03438842991966L177.32775909636587,48.83004582828872L177.45389355865393,51.434010222339666L177.580028020942,51.06011679303708L177.70616248323006,52.18635066411389L177.83229694551812,54.67301389925622L177.9584314078062,56.65338720386352L178.08456587009425,55.981883569256865L178.2107003323823,58.289044270383215L178.33683479467035,58.75873424090099L178.4629692569584,59.93001860878532L178.58910371924645,61.62425845062124L178.71523818153452,61.255775077811066L178.84137264382258,62.13164038464352L178.96750710611062,61.817050595704316L179.21977603068675,63.643893919825814L179.3459104929748,64.29810393057876L179.47204495526287,64.14166907807135L179.59817941755094,64.33537479469929L180.8595240404315,68.0498853234546L181.23792742729566,69.3993732408145L181.36406188958372,69.4706175467607L181.49019635187176,70.5602086341541L181.61633081415982,70.83085420432845L181.86859973873595,72.08761460988177L181.99473420102402,71.53011471188891L182.12086866331208,72.37131426095931L182.24700312560014,73.17221674016672L182.37313758788815,74.08645918916235L182.62540651246428,75.07058272406454L182.75154097475234,74.76819054270518L182.8776754370404,75.65264913188177L183.00380989932847,76.14903965825455L183.1299443616165,77.23467669380523L183.25607882390457,78.11795049488454L183.38221328619264,77.79799347311908L183.5083477484807,78.21858611037658L183.63448221076877,79.0806836085364L183.7606166730568,79.4655113472669L183.88675113534484,80.56882028238908L184.13902005992097,81.43552846193953L184.26515452220903,81.5441292793386L184.51742344678516,82.32940825767281L184.64355790907322,82.49121748028416L184.76969237136126,82.9548978629832L185.02196129593736,84.05246842683903L185.14809575822542,83.7465076066324L185.2742302205135,84.24543186658676L185.40036468280155,84.47689378221845L185.5264991450896,84.99376115829669L185.65263360737765,85.46928942196854L186.1571714565299,86.15360447003678L186.40944038110598,87.17888868540298L186.78784376797017,88.24692519415906L186.91397823025824,88.20310944639272L187.16624715483437,88.92170483922749L187.2923816171224,89.49220171990197L187.41851607941047,89.87498105993417L187.67078500398657,90.08066312853344L187.79691946627463,90.09772835950093L187.9230539285627,90.65822591412545L188.04918839085073,90.81816516998087L188.1753228531388,91.17974679526048L188.30145731542686,90.94440220056299L188.42759177771492,91.57099808391602L188.553726240003,91.55856494617225L188.67986070229105,91.79594366501269L189.0582640891552,92.05751775523736L189.18439855144325,91.77337559294276L189.31053301373132,91.80317372731719L189.56280193830744,91.59365894059597L189.68893640059548,91.77219080484548L189.81507086288354,92.12915461145677L189.9412053251716,92.45422192405147L190.06733978745967,92.63319629951803L190.4457431743238,93.62011764727647L190.57187763661187,93.86390564148653L190.69801209889994,94.13870510727907L190.824146561188,94.22199000069585L190.95028102347607,94.41553869721453L191.07641548576413,94.58110212789317L191.2025499480522,94.94920008770785L191.4548188726283,95.2556034191315L191.58095333491633,95.65651858178535L191.7070877972044,95.89607417032259L191.83322225949246,95.74975997758592L191.95935672178052,96.26764798437448L192.0854911840686,96.28445627334496L192.21162564635662,96.67748474414641L192.3377601086447,96.71176508891295L192.71616349550888,97.27904305734724L192.84229795779694,97.35332070631361L193.09456688237302,97.75504951862463L193.59910473152527,98.52030843302585L193.72523919381334,98.80940386604041L193.97750811838944,99.20460206926099L194.1036425806775,99.35883864023852L194.48204596754167,100.19364318849468L194.73431489211777,100.50319405938158L194.86044935440583,100.70305210938218L194.9865838166939,100.780869848085L195.23885274127002,101.25500277396759L195.3649872035581,101.49681731089512L195.4911216658461,101.64903760092396L195.61725612813416,101.82500004520347L195.8695250527103,102.31946350659875L195.99565951499835,102.56800849639218L196.12179397728642,102.92414081015207L196.24792843957445,103.10787574984083L196.37406290186252,103.23607553178894L196.62633182643864,103.66889432573707L196.7524662887267,103.79073479325939L196.87860075101474,104.04893295113459L197.13086967559084,104.33263617085099L197.2570041378789,104.48711540927012L197.6354075247431,104.93572899875612L197.8876764493192,105.21228780350035L198.01381091160727,105.34993020383823L198.26607983618337,105.6967233897349L198.39221429847143,105.80368977054195L198.5183487607595,106.03755694875669L198.64448322304756,106.21872960575315L198.7706176853356,106.3192438875244L198.89675214762366,106.44817167179733L199.02288660991172,106.55720429449691L199.40128999677592,107.04543691246494L199.52742445906392,107.22785145578024L199.653558921352,107.45835697620088L199.77969338364005,107.73766006421863L199.90582784592812,107.85860123475145L200.03196230821618,108.10589720094835L200.15809677050424,108.25548026686907L200.41036569508034,108.69155722808475L200.5365001573684,108.88143379522961L200.66263461965647,109.18257695299243L200.7887690819445,109.40835759557935L200.91490354423257,109.56080984713326L201.04103800652064,109.78535217204018L201.4194413933848,110.4803196070674L201.67171031796093,110.85344934765666L201.797844780249,111.01266773846494L201.92397924253706,111.11467371127432L202.05011370482507,111.30915739117097L202.17624816711313,111.49689277500751L202.3023826294012,111.6938423843476L202.42851709168926,111.85926663811121L202.55465155397732,112.02655728999193L202.6807860162654,112.31206980960387L202.80692047855342,112.41645606452435L203.18532386541762,113.05482845607328L203.31145832770568,113.26796541122442L203.68986171456982,113.82292443835806L203.81599617685788,113.99337333561857L204.068265101434,114.46511884211236L204.19439956372207,114.55733246992492L204.32053402601014,114.76190112320387L204.57280295058624,115.17259435629914L204.69893741287427,115.3768632439149L204.82507187516234,115.56816012932097L205.07734079973847,115.93088015039285L205.20347526202653,116.21101829990087L205.32960972431457,116.41617934722845L205.5818786488907,116.69861570015408L205.70801311117876,116.89586864379618L205.83414757346682,117.05226424127629L206.0864164980429,117.469534475767L206.21255096033096,117.58539033594252L206.33868542261902,117.84139021228782L206.59095434719515,118.11473367343069L206.71708880948322,118.32849514038011L206.96935773405932,118.65891541124566L207.09549219634738,118.85617906080431L207.22162665863544,119.0320273086407L207.34776112092348,119.21904539606894L207.47389558321154,119.37661864436862L207.6000300454996,119.58433483711083L207.8522989700757,119.88622740903159L207.97843343236377,120.05191217343105L208.35683681922796,120.61882970934175L208.60910574380407,120.92210334449638L208.98750913066823,121.44594740952095L209.49204697982046,122.14161429776225L210.12271929126075,123.03226804397764L210.50112267812491,123.51380232682939L210.62725714041298,123.66639375529834L210.75339160270104,123.88076902812949L210.8795260649891,123.99755273440528L211.00566052727714,124.15238169943144L211.1317949895652,124.29109112278465L211.3840639141413,124.63462614141379L211.51019837642937,124.75278020500693L211.7624673010055,124.98599432231262L211.88860176329354,125.10296716644731L212.14087068786966,125.39825775650067L212.26700515015773,125.54241649137361L212.3931396124458,125.62207921636045L212.51927407473386,125.81340821951616L212.77154299930993,125.99236475178847L212.897677461598,126.21024799660645L213.02381192388606,126.23749812284396L213.14994638617412,126.42987987445957L213.2760808484622,126.453604185516L213.40221531075025,126.67989157481921L213.5283497730383,126.76514278824084L213.65448423532635,126.85817720298826L213.78061869761441,127.05747854532869L214.03288762219051,127.3089391130603L214.28515654676661,127.58048041158531L214.41129100905468,127.69362053759808L214.6635599336308,127.9218956587392L215.041963320495,128.31676554718584L215.29423224507107,128.46951399576406L215.79877009422333,128.9876446699942L215.92490455651136,129.05129848111238L216.05103901879943,129.05083455806223L216.1771734810875,129.29849452542152L216.55557686795166,129.32202256134136L216.68171133023972,129.43454531283354L216.80784579252776,129.61589640177237L217.18624917939195,129.792790260791L217.31238364168001,130.05178779376797L217.56465256625611,130.2583191984129L217.69078702854418,130.29633233941365L217.81692149083221,130.49409202977205L218.1953248776964,130.87339908420591L218.32145933998447,131.04631391090987L218.69986272684864,131.44969500300715L218.8259971891367,131.6282447104509L218.95213165142476,131.62750243357067L219.07826611371283,131.5829604677989L219.20440057600084,131.68231315762534L219.3305350382889,131.76679889801426L219.45666950057696,131.9609274983456L219.7089384251531,131.9916463415426L219.83507288744116,132.1066867677415L219.96120734972922,132.2578364661162L220.08734181201726,132.52978815810863L220.21347627430532,132.3388267247542L220.3396107365934,132.62859841483032L220.46574519888142,132.5850342561027L220.5918796611695,132.83212502556586L220.71801412345755,132.85567090467993L221.22255197260978,133.28536357099787L221.4748208971859,133.46823668440504" style="fill: none;" fill="none"></path></g></g></g></g></g></g><g transform="translate(60, 178)" clip-path="url(#clip_1)"><clipPath id="clip_1"><rect width="270" height="22"></rect></clipPath><g><g><line x1="7.172369469776808" y1="0" x2="7.172369469776808" y2="5" style="visibility: inherit;" fill="rgb(0, 0, 0)" stroke="rgb(204, 204, 204)" stroke-width="1px"></line><line x1="32.39926192738824" y1="0" x2="32.39926192738824" y2="5" style="visibility: inherit;" fill="rgb(0, 0, 0)" stroke="rgb(204, 204, 204)" stroke-width="1px"></line><line x1="57.626154384999666" y1="0" x2="57.626154384999666" y2="5" style="visibility: inherit;" fill="rgb(0, 0, 0)" stroke="rgb(204, 204, 204)" stroke-width="1px"></line><line x1="82.85304684261108" y1="0" x2="82.85304684261108" y2="5" style="visibility: inherit;" fill="rgb(0, 0, 0)" stroke="rgb(204, 204, 204)" stroke-width="1px"></line><line x1="108.07993930022252" y1="0" x2="108.07993930022252" y2="5" style="visibility: inherit;" fill="rgb(0, 0, 0)" stroke="rgb(204, 204, 204)" stroke-width="1px"></line><line x1="133.30683175783395" y1="0" x2="133.30683175783395" y2="5" style="visibility: inherit;" fill="rgb(0, 0, 0)" stroke="rgb(204, 204, 204)" stroke-width="1px"></line><line x1="158.53372421544537" y1="0" x2="158.53372421544537" y2="5" style="visibility: inherit;" fill="rgb(0, 0, 0)" stroke="rgb(204, 204, 204)" stroke-width="1px"></line><line x1="183.7606166730568" y1="0" x2="183.7606166730568" y2="5" style="visibility: inherit;" fill="rgb(0, 0, 0)" stroke="rgb(204, 204, 204)" stroke-width="1px"></line><line x1="208.98750913066823" y1="0" x2="208.98750913066823" y2="5" style="visibility: inherit;" fill="rgb(0, 0, 0)" stroke="rgb(204, 204, 204)" stroke-width="1px"></line><line x1="234.21440158827966" y1="0" x2="234.21440158827966" y2="5" style="visibility: inherit;" fill="rgb(0, 0, 0)" stroke="rgb(204, 204, 204)" stroke-width="1px"></line><line x1="259.4412940458911" y1="0" x2="259.4412940458911" y2="5" style="visibility: inherit;" fill="rgb(0, 0, 0)" stroke="rgb(204, 204, 204)" stroke-width="1px"></line></g><g transform="translate(0, 8)"><text x="7.172369469776808" y="0" dx="0em" dy="0.95em" style="text-anchor: middle; visibility: hidden; font-family: &quot;Helvetica Neue&quot;, sans-serif; font-size: 12px; font-weight: 200;" fill="rgb(50, 49, 63)" stroke="none" stroke-width="1px">-200.0</text><text x="32.39926192738824" y="0" dx="0em" dy="0.95em" style="text-anchor: middle; visibility: inherit; font-family: &quot;Helvetica Neue&quot;, sans-serif; font-size: 12px; font-weight: 200;" fill="rgb(50, 49, 63)" stroke="none" stroke-width="1px">0.000</text><text x="57.626154384999666" y="0" dx="0em" dy="0.95em" style="text-anchor: middle; visibility: hidden; font-family: &quot;Helvetica Neue&quot;, sans-serif; font-size: 12px; font-weight: 200;" fill="rgb(50, 49, 63)" stroke="none" stroke-width="1px">200.0</text><text x="82.85304684261108" y="0" dx="0em" dy="0.95em" style="text-anchor: middle; visibility: inherit; font-family: &quot;Helvetica Neue&quot;, sans-serif; font-size: 12px; font-weight: 200;" fill="rgb(50, 49, 63)" stroke="none" stroke-width="1px">400.0</text><text x="108.07993930022252" y="0" dx="0em" dy="0.95em" style="text-anchor: middle; visibility: hidden; font-family: &quot;Helvetica Neue&quot;, sans-serif; font-size: 12px; font-weight: 200;" fill="rgb(50, 49, 63)" stroke="none" stroke-width="1px">600.0</text><text x="133.30683175783395" y="0" dx="0em" dy="0.95em" style="text-anchor: middle; visibility: inherit; font-family: &quot;Helvetica Neue&quot;, sans-serif; font-size: 12px; font-weight: 200;" fill="rgb(50, 49, 63)" stroke="none" stroke-width="1px">800.0</text><text x="158.53372421544537" y="0" dx="0em" dy="0.95em" style="text-anchor: middle; visibility: hidden; font-family: &quot;Helvetica Neue&quot;, sans-serif; font-size: 12px; font-weight: 200;" fill="rgb(50, 49, 63)" stroke="none" stroke-width="1px">1.000k</text><text x="183.7606166730568" y="0" dx="0em" dy="0.95em" style="text-anchor: middle; visibility: inherit; font-family: &quot;Helvetica Neue&quot;, sans-serif; font-size: 12px; font-weight: 200;" fill="rgb(50, 49, 63)" stroke="none" stroke-width="1px">1.200k</text><text x="208.98750913066823" y="0" dx="0em" dy="0.95em" style="text-anchor: middle; visibility: hidden; font-family: &quot;Helvetica Neue&quot;, sans-serif; font-size: 12px; font-weight: 200;" fill="rgb(50, 49, 63)" stroke="none" stroke-width="1px">1.400k</text><text x="234.21440158827966" y="0" dx="0em" dy="0.95em" style="text-anchor: middle; visibility: inherit; font-family: &quot;Helvetica Neue&quot;, sans-serif; font-size: 12px; font-weight: 200;" fill="rgb(50, 49, 63)" stroke="none" stroke-width="1px">1.600k</text><text x="259.4412940458911" y="0" dx="0em" dy="0.95em" style="text-anchor: middle; visibility: hidden; font-family: &quot;Helvetica Neue&quot;, sans-serif; font-size: 12px; font-weight: 200;" fill="rgb(50, 49, 63)" stroke="none" stroke-width="1px">1.800k</text></g><line x1="0" y1="0" x2="270" y2="0" fill="rgb(0, 0, 0)" stroke="rgb(204, 204, 204)" stroke-width="1px"></line></g></g></g></g></svg>