<svg viewBox="0 0 330 200" xmlns="http://www.w3.org/2000/svg"><g><g><g><g><g><line x1="60" y1="178" x2="55" y2="178" style="visibility: inherit;" fill="rgb(0, 0, 0)" stroke="rgb(204, 204, 204)" stroke-width="1px"></line><line x1="60" y1="158.22222222222223" x2="55" y2="158.22222222222223" style="visibility: inherit;" fill="rgb(0, 0, 0)" stroke="rgb(204, 204, 204)" stroke-width="1px"></line><line x1="60" y1="138.44444444444446" x2="55" y2="138.44444444444446" style="visibility: inherit;" fill="rgb(0, 0, 0)" stroke="rgb(204, 204, 204)" stroke-width="1px"></line><line x1="60" y1="118.66666666666667" x2="55" y2="118.66666666666667" style="visibility: inherit;" fill="rgb(0, 0, 0)" stroke="rgb(204, 204, 204)" stroke-width="1px"></line><line x1="60" y1="98.8888888888889" x2="55" y2="98.8888888888889" style="visibility: inherit;" fill="rgb(0, 0, 0)" stroke="rgb(204, 204, 204)" stroke-width="1px"></line><line x1="60" y1="79.1111111111111" x2="55" y2="79.1111111111111" style="visibility: inherit;" fill="rgb(0, 0, 0)" stroke="rgb(204, 204, 204)" stroke-width="1px"></line><line x1="60" y1="59.33333333333334" x2="55" y2="59.33333333333334" style="visibility: inherit;" fill="rgb(0, 0, 0)" stroke="rgb(204, 204, 204)" stroke-width="1px"></line><line x1="60" y1="39.55555555555554" x2="55" y2="39.55555555555554" style="visibility: inherit;" fill="rgb(0, 0, 0)" stroke="rgb(204, 204, 204)" stroke-width="1px"></line><line x1="60" y1="19.7777777777778" x2="55" y2="19.7777777777778" style="visibility: inherit;" fill="rgb(0, 0, 0)" stroke="rgb(204, 204, 204)" stroke-width="1px"></line><line x1="60" y1="0" x2="55" y2="0" style="visibility: inherit;" fill="rgb(0, 0, 0)" stroke="rgb(204, 204, 204)" stroke-width="1px"></line></g><g transform="translate(50, 0)"><text x="0" y="178" dx="0em" dy="0.3em" style="text-anchor: end; visibility: hidden; font-family: &quot;Helvetica Neue&quot;, sans-serif; font-size: 12px; font-weight: 200;" fill="rgb(50, 49, 63)" stroke="none" stroke-width="1px">-2.00</text><text x="0" y="158.22222222222223" dx="0em" dy="0.3em" style="text-anchor: end; visibility: inherit; font-family: &quot;Helvetica Neue&quot;, sans-serif; font-size: 12px; font-weight: 200;" fill="rgb(50, 49, 63)" stroke="none" stroke-width="1px">-1.00</text><text x="0" y="138.44444444444446" dx="0em" dy="0.3em" style="text-anchor: end; visibility: hidden; font-family: &quot;Helvetica Neue&quot;, sans-serif; font-size: 12px; font-weight: 200;" fill="rgb(50, 49, 63)" stroke="none" stroke-width="1px">0.00</text><text x="0" y="118.66666666666667" dx="0em" dy="0.3em" style="text-anchor: end; visibility: inherit; font-family: &quot;Helvetica Neue&quot;, sans-serif; font-size: 12px; font-weight: 200;" fill="rgb(50, 49, 63)" stroke="none" stroke-width="1px">1.00</text><text x="0" y="98.8888888888889" dx="0em" dy="0.3em" style="text-anchor: end; visibility: hidden; font-family: &quot;Helvetica Neue&quot;, sans-serif; font-size: 12px; font-weight: 200;" fill="rgb(50, 49, 63)" stroke="none" stroke-width="1px">2.00</text><text x="0" y="79.1111111111111" dx="0em" dy="0.3em" style="text-anchor: end; visibility: inherit; font-family: &quot;Helvetica Neue&quot;, sans-serif; font-size: 12px; font-weight: 200;" fill="rgb(50, 49, 63)" stroke="none" stroke-width="1px">3.00</text><text x="0" y="59.33333333333334" dx="0em" dy="0.3em" style="text-anchor: end; visibility: hidden; font-family: &quot;Helvetica Neue&quot;, sans-serif; font-size: 12px; font-weight: 200;" fill="rgb(50, 49, 63)" stroke="none" stroke-width="1px">4.00</text><text x="0" y="39.55555555555554" dx="0em" dy="0.3em" style="text-anchor: end; visibility: inherit; font-family: &quot;Helvetica Neue&quot;, sans-serif; font-size: 12px; font-weight: 200;" fill="rgb(50, 49, 63)" stroke="none" stroke-width="1px">5.00</text><text x="0" y="19.7777777777778" dx="0em" dy="0.3em" style="text-anchor: end; visibility: hidden; font-family: &quot;Helvetica Neue&quot;, sans-serif; font-size: 12px; font-weight: 200;" fill="rgb(50, 49, 63)" stroke="none" stroke-width="1px">6.00</text><text x="0" y="0" dx="0em" dy="0.3em" style="text-anchor: end; visibility: hidden; font-family: &quot;Helvetica Neue&quot;, sans-serif; font-size: 12px; font-weight: 200;" fill="rgb(50, 49, 63)" stroke="none" stroke-width="1px">7.00</text></g><line x1="60" y1="0" x2="60" y2="178" fill="rgb(0, 0, 0)" stroke="rgb(204, 204, 204)" stroke-width="1px"></line></g></g><g transform="translate(60, 0)" clip-path="url(#clip_0)"><clipPath id="clip_0"><rect width="270" height="178"></rect></clipPath><g><g><g><line x1="0" y1="0" x2="0" y2="178" fill="rgb(0, 0, 0)" stroke="rgb(60, 60, 60)" stroke-width="1px" opacity="0.25"></line><line x1="30" y1="0" x2="30" y2="178" fill="rgb(0, 0, 0)" stroke="rgb(60, 60, 60)" stroke-width="1px" opacity="0.25"></line><line x1="60" y1="0" x2="60" y2="178" fill="rgb(0, 0, 0)" stroke="rgb(60, 60, 60)" stroke-width="1px" opacity="0.25"></line><line x1="90" y1="0" x2="90" y2="178" fill="rgb(0, 0, 0)" stroke="rgb(60, 60, 60)" stroke-width="1px" opacity="0.25"></line><line x1="120" y1="0" x2="120" y2="178" fill="rgb(0, 0, 0)" stroke="rgb(60, 60, 60)" stroke-width="1px" opacity="0.25"></line><line x1="150" y1="0" x2="150" y2="178" fill="rgb(0, 0, 0)" stroke="rgb(60, 60, 60)" stroke-width="1px" opacity="0.25"></line><line x1="180" y1="0" x2="180" y2="178" fill="rgb(0, 0, 0)" stroke="rgb(60, 60, 60)" stroke-width="1px" opacity="0.25"></line><line x1="210" y1="0" x2="210" y2="178" fill="rgb(0, 0, 0)" stroke="rgb(60, 60, 60)" stroke-width="1px" opacity="0.25"></line><line x1="240" y1="0" x2="240" y2="178" fill="rgb(0, 0, 0)" stroke="rgb(60, 60, 60)" stroke-width="1px" opacity="0.25"></line><line x1="270" y1="0" x2="270" y2="178" fill="rgb(0, 0, 0)" stroke="rgb(60, 60, 60)" stroke-width="1px" opacity="0.25"></line></g><g><line x1="0" y1="178" x2="270" y2="178" fill="rgb(0, 0, 0)" stroke="rgb(60, 60, 60)" stroke-width="1px" opacity="0.25"></line><line x1="0" y1="158.22222222222223" x2="270" y2="158.22222222222223" fill="rgb(0, 0, 0)" stroke="rgb(60, 60, 60)" stroke-width="1px" opacity="0.25"></line><line x1="0" y1="138.44444444444446" x2="270" y2="138.44444444444446" fill="rgb(0, 0, 0)" stroke="rgb(60, 60, 60)" stroke-width="1px" opacity="0.25"></line><line x1="0" y1="118.66666666666667" x2="270" y2="118.66666666666667" fill="rgb(0, 0, 0)" stroke="rgb(60, 60, 60)" stroke-width="1px" opacity="0.25"></line><line x1="0" y1="98.8888888888889" x2="270" y2="98.8888888888889" fill="rgb(0, 0, 0)" stroke="rgb(60, 60, 60)" stroke-width="1px" opacity="0.25"></line><line x1="0" y1="79.1111111111111" x2="270" y2="79.1111111111111" fill="rgb(0, 0, 0)" stroke="rgb(60, 60, 60)" stroke-width="1px" opacity="0.25"></line><line x1="0" y1="59.33333333333334" x2="270" y2="59.33333333333334" fill="rgb(0, 0, 0)" stroke="rgb(60, 60, 60)" stroke-width="1px" opacity="0.25"></line><line x1="0" y1="39.55555555555554" x2="270" y2="39.55555555555554" fill="rgb(0, 0, 0)" stroke="rgb(60, 60, 60)" stroke-width="1px" opacity="0.25"></line><line x1="0" y1="19.7777777777778" x2="270" y2="19.7777777777778" fill="rgb(0, 0, 0)" stroke="rgb(60, 60, 60)" stroke-width="1px" opacity="0.25"></line><line x1="0" y1="0" x2="270" y2="0" fill="rgb(0, 0, 0)" stroke="rgb(60, 60, 60)" stroke-width="1px" opacity="0.25"></line></g></g></g><g><g><line x1="0" y1="138.44444444444446" x2="270" y2="138.44444444444446" fill="rgb(0, 0, 0)" stroke="rgb(153, 153, 153)" stroke-width="1.5px"></line></g></g><g><g><line x1="30" y1="0" x2="30" y2="178" fill="rgb(0, 0, 0)" stroke="rgb(153, 153, 153)" stroke-width="1.5px"></line></g></g><g><g><g><g><g><path stroke="rgb(255, 112, 67)" stroke-width="2px" d="M30.450000000000003,126.06094466315375L30.75,129.0110290984561L30.900000000000002,126.51470844353766L31.2,128.3364569840685L31.5,122.4880342686256L31.650000000000002,124.07800220143113L31.799999999999997,121.26033828050987L31.95,107.53261327287824L32.1,110.50930146239425L32.25,113.13338305497564L32.4,115.05354265274084L32.55,116.78844321264819L32.7,118.1901740518908L32.85,119.53195799213871L33,118.210161329197L33.300000000000004,117.9944817373092L33.6,118.13416494120659L33.75,119.4873326600023L34.5,119.91954585110622L34.65,120.88194321090376L34.8,120.49583479553877L34.95,119.68454312338616L35.1,119.68995572200281L35.400000000000006,117.34452033758652L35.85,112.66080125710265L36,107.21510182121756L36.300000000000004,106.29896083554146L36.45,106.21119818947594L36.6,107.41979043969107L36.75,109.00613987481984L37.05,104.97675936750004L37.35,103.82623089501098L37.5,101.19593627510186L37.949999999999996,97.50430582807606L38.1,94.4714456735158L38.25,91.76136988171979L38.4,93.74964398911717L38.550000000000004,92.10856528867436L38.99999999999999,89.0298809010094L39.15,86.70512839010435L39.449999999999996,83.15261357817633L39.6,82.17885430113024L39.75,80.86384828282524L39.900000000000006,77.8651889054032L40.050000000000004,76.98777987876473L40.199999999999996,78.1238825987592L40.349999999999994,78.71515524714528L40.65,80.64956002774748L40.8,83.4283877941418L40.95,80.81953836185555L41.1,78.14179030101135L41.4,76.99633994416729L41.699999999999996,79.58878297070606L41.85,81.34801072665621L42.15,79.24460298801789L42.300000000000004,77.16094487302944L42.599999999999994,77.83272791276913L42.75,79.43114086975247L42.9,82.41935574242065L43.05,84.32362630218611L43.2,88.63679141039414L43.35,90.76201081244999L43.65,93.00803228598593L43.8,90.64433672411089L43.949999999999996,89.52353063099802L44.1,91.46856870523418L44.849999999999994,87.69395631520709L45,89.41926479380328L45.3,90.19387276620891L45.6,89.3073518365574L45.75,89.0615564752778L45.900000000000006,87.06569145277247L46.35,88.89879658485866L46.95,87.06169298342148L47.4,88.06155558257L47.7,84.84345367509913L47.85,81.31032264781437L48,80.83779980453683L48.6,79.65841511298233L48.75,76.71640425563436L48.9,73.95444976584412L49.050000000000004,73.83531753061979L49.35,75.94543177092838L49.5,77.25612569995862L49.95,74.23171131360843L50.400000000000006,74.36830119046145L50.550000000000004,77.38303133404496L50.849999999999994,80.32185825941114L51.15,78.45907100100969L51.3,74.84642353183051L51.45,73.4343602445238L51.6,72.64558099050642L51.75,72.96312886541712L51.9,76.11174013415916L52.199999999999996,77.78646642546427L52.35,80.43435168137924L52.5,81.7452869084421L52.65,79.89652073725465L52.95,78.260952219432L53.099999999999994,78.64489359824326L53.25,79.55074020091813L53.55,76.05991852526489L53.7,77.09081942864927L53.85,74.57235060391184L54.15,75.72907618621086L54.3,74.62749207517483L54.6,75.30419868323578L54.75,75.95503423352316L55.050000000000004,74.72484158096212L55.2,73.31660430322354L55.349999999999994,70.97533204209952L55.65,68.74018234305805L56.25,67.04880246664412L56.400000000000006,64.96932600188653L56.55,64.73462416716114L56.699999999999996,65.31103791188539L57,65.43086665305717L57.15,67.46148767039348L57.45,69.57911835236084L57.75,71.70654462153625L57.9,72.28356460198789L58.05,70.63536586070705L58.2,68.64899087406769L58.5,67.11774777953171L58.650000000000006,65.84992530264832L59.7,68.95661221230394L60.3,68.22637021537197L60.75,71.0070523066405L60.900000000000006,73.47147248577679L61.050000000000004,75.80991820696258L61.199999999999996,76.28368689274447L61.800000000000004,75.2351449651059L61.95,74.16068871219565L62.1,72.4721952132282L62.25000000000001,71.0807246018675L62.699999999999996,70.45310210175771L62.85,70.13673238518193L63,73.23400165905865L63.15,76.45305398052484L63.300000000000004,77.22589074376869L63.449999999999996,80.24529741660504L63.75,81.30944959565463L63.9,83.2370107317212L64.05,84.88796609846283L64.35000000000001,87.58025026026743L64.5,89.11335698997398L64.64999999999999,90.3365207385991L64.8,91.93723586130724L64.95,94.47017133470108L65.1,96.74294847152663L65.55,98.91836738628344L65.7,102.01771118205774L66,104.8786072230083L66.60000000000001,105.55179245714477L66.75,107.75142293233884L67.05,108.64772947065693L67.2,110.07680590715971L67.35,111.54501017546336L67.5,112.90280549194438L67.64999999999999,114.11269361494686L67.8,115.47565302717835L68.25,116.82027220785653L68.69999999999999,118.59359855879245L68.85,120.49778066010414L69,121.62725812026387L69.15,122.69097524511994L69.45,123.71251875087654L70.05,124.50331329144919L70.35,125.37834516324362L70.64999999999999,126.13633567060826L70.80000000000001,126.66717043202249L70.95,127.2806338468852L71.1,127.87284729425699L71.25,128.41370741043602L71.55,129.13353651974845L71.7,129.67448075626587L72,130.21310821881133L72.3,130.3461148473516L72.60000000000001,129.90259212920137L73.35,130.29288576342242L73.65,130.1560535067402L73.8,130.35432914466824L74.1,129.8629467739664L74.25,129.92234481307577L74.4,130.01108270064114L74.55,130.05857718644796L74.7,130.1330876366747L74.85,130.01464401472163L75,130.05996278066723L75.14999999999999,130.49737162159602L75.30000000000001,130.75053692121222L75.45,130.9587003532521L76.05,131.1438833988927L76.2,131.36861722651045L76.5,131.7163377452926L76.94999999999999,131.65202481033631L77.55,130.68205227047463L77.7,128.80475400769944L77.85,126.67683035693169L77.99999999999999,124.27899600946364L78.3,120.54803106024889L78.45,117.1327192187798L78.6,114.75014555605941L78.75,113.48189152156283L78.89999999999999,110.72264870388078L79.05000000000001,109.74771120121348L79.5,111.2346491481942L79.64999999999999,111.73052931929745L79.95,111.00984942813106L80.25,107.83802093171238L80.55,105.62669930360717L80.85000000000001,102.20740171570249L81.15,101.65340606659998L81.3,102.13297089372416L81.45,103.77343185932362L81.6,102.60366239243986L81.75,102.89824794903267L81.9,101.5801680936844L82.05,102.25099019112699L82.2,101.60275689925558L82.35,102.01021649998509L82.65,103.933392868712L82.95,104.69742475299557L83.1,106.47464331442693L83.39999999999999,108.13218804414574L83.7,109.75595227195873L83.85,111.27835021382202L84,112.399759088703L84.14999999999999,113.75980054384189L84.3,114.58599200795561L84.45,115.62796922329125L84.60000000000001,116.74022695966777L84.75,115.39411388339528L84.9,116.56836968639928L85.05,117.80219575424744L85.19999999999999,118.86195702529162L85.5,119.9797104400021L85.65,120.99476567073835L85.95,122.09879111125623L86.25,123.06318179006675L86.4,123.94838562825494L86.55,124.80627819012301L86.7,125.51970955279418L86.85,126.16392935424722L87.15,126.92604164541177L87.3,127.72620544077049L87.6,128.86404825886177L87.75,129.73141894591413L87.89999999999999,130.50823216749203L88.05000000000001,131.03515418544936L88.2,131.39763274699152L88.5,132.03610824999106L88.64999999999999,132.46923235849582L88.8,132.7997771074099L88.94999999999999,133.23945271412447L89.69999999999999,132.33970050552708L89.85000000000001,132.33916462666696L90.3,132.16184384069834L90.45,131.5248897998558L90.75000000000001,130.85527305515083L90.9,128.00960539870252L91.2,126.40357029153876L91.5,123.08672070051807L92.25,122.88238005874176L92.39999999999999,122.30307579333844L92.85000000000001,122.86359917168909L93,123.62644232225017L93.14999999999999,124.33201090525571L93.3,124.50836050418981L93.44999999999999,125.26105871990583L93.60000000000001,125.64918673383112L93.9,126.36354982053786L94.2,123.36652354056736L94.5,123.98515597168353L94.8,124.35379375892185L95.25,124.66530687476165L95.4,125.63495651497809L95.85,125.22083503855174L96,124.6852347576561L96.14999999999999,124.14901683774038L96.30000000000001,123.68462134202944L96.6,123.95086493398053L96.75,123.11698292220393L97.2,123.550602946647L97.35000000000001,123.76114869026884L97.65,123.22817417824334L98.10000000000001,123.64630413377392L98.55,122.89175894347346L98.7,123.14290075159138L98.85,123.5841425104504L99,124.17351157053076L99.15,124.70734638496049L99.45,125.10620870498084L99.6,125.1409904286897L99.75,124.9225355399764L99.9,124.26004586277017L100.05000000000001,124.95533525353213L100.2,124.3941054452317L100.35,124.84337852188123L100.64999999999999,124.90783905633408L100.95,124.82298791086173L101.10000000000001,125.55051113463705L101.55,126.20807100136793L101.69999999999999,126.83420354707982L102.3,127.41426223127897L102.75,126.89781421514327L102.9,127.43750954810409L103.2,128.07613229063335L103.35,128.4147355990831L103.65,128.74392428588288L103.8,129.29009909167291L103.95,129.76057018900934L104.39999999999999,130.21211811942732L104.55000000000001,130.43614910014824L104.85,130.17480376086704L105.45,130.50723786149604L105.9,130.74362339007604L106.05,130.9293772186688L106.19999999999999,131.12047551460728L106.35000000000001,131.4877867771972L106.5,131.84330487771408L106.65,132.01064992509924L106.8,132.3950515524463L107.1,132.72847381339696L107.25,133.0827122381168L107.4,133.37474759941585L107.55,133.43401065427355L107.7,133.4944773633741L107.85,133.7642920675505L108,134.00232602705162L108.6,134.20517152110972L108.75,134.27786976618387L109.64999999999999,134.2499555032122L109.95,134.56455353853198L110.10000000000001,134.62598997128921L110.25,134.68913495687178L110.4,134.72318327668074L110.55,134.69720591906741L110.69999999999999,134.8487977492929L110.85000000000001,135.02845978121337L111,135.1408749531331L111.15,135.3261431885559L111.3,135.39511501590334L111.45,135.26745257515194L111.6,135.16358106055407L111.74999999999999,134.95985476363245L111.9,134.92032459534357L112.05,135.03758220053507L112.2,135.19218449830345L112.35,135.28540556696498L112.64999999999999,135.3778101129684L112.80000000000001,135.35072469741021L112.95,135.56254318328033L113.25,135.61432935872156L113.55000000000001,135.6516419425251L113.85000000000001,134.92105687838668L114,134.57862032898555L114.44999999999999,134.63649649941348L114.60000000000001,134.72258444950845L114.75,134.73779692345477L115.05,134.91164270436911L115.2,135.06939581053174L115.35,135.09491925499682L115.65,135.08563563836216L115.95,134.73657558162864L116.1,134.5708350813748L116.4,134.69879754244704L116.55,134.33894646651672L116.7,133.97810526870202L116.85,133.48259705923903L117,132.10824969496184L117.14999999999999,131.36365103409267L117.30000000000001,130.99753243397322L117.45,131.3424698895253L117.6,131.70913285857267L117.89999999999999,132.06516274923015L118.05,132.32965670978223L118.2,132.5596835169511L118.65,132.77429081311078L118.8,133.02289228252994L118.94999999999999,133.0914022786488L119.25,131.93553449909973L119.4,129.440087622993L119.55,125.77155398800949L119.7,121.58760296158279L120,120.40607610686013L120.3,121.03259071769888L120.45,121.8867583967222L120.6,121.85858175735885L120.9,122.85564557251399L121.2,123.17506317419942L121.5,123.47766701029013L121.64999999999999,122.74690731759546L121.80000000000001,122.73651121092706L122.25,122.79347211323584L122.85000000000001,123.14776931091532L123,120.55016941020648L123.15,120.65803541835712L123.3,120.80955399076508L123.44999999999999,120.51244540622145L123.75,120.68694091126056L123.9,120.20313939750025L124.35,120.32709402391593L124.50000000000001,120.23821254556384L124.8,118.61443128278489L125.1,118.58372068239973L125.25,117.4788679437392L125.7,117.35678197728066L126,116.95044980966148L126.14999999999999,115.85577220852385L126.3,114.59687852478928L126.60000000000001,114.8870300433617L126.75,115.83093963385096L126.89999999999999,117.03323376638242L127.05,118.1770882144695L127.19999999999999,119.30083149647928L127.35000000000001,120.3029896399969L127.5,121.30099415388389L127.65,122.23742181790888L127.8,123.11850778423184L128.4,122.6864852557681L128.54999999999998,122.79068042434153L128.85,123.66204220276776L129.15,124.48840484515006L129.29999999999998,124.72420387675405L129.45,125.41074061509858L129.6,126.032311981453L129.75,126.06743186020475L129.9,124.8261987171067L130.05,124.94015681528631L130.2,125.69420315813275L130.35,126.36807571748415L130.65,127.00233608530664L130.8,127.62450025887219L130.95,128.09252617307914L131.1,128.6472042065002L131.25,129.16182819016413L131.55,129.63378435930588L131.7,129.44482965594324L131.85,127.94258035966675L132.15,128.54108617260937L132.3,129.01036942830902L132.45000000000002,129.4910112267508L132.6,130.00321997910015L132.75,130.45320437783258L132.9,130.91137693088547L133.04999999999998,131.33812799392905L133.20000000000002,131.76414422834898L133.35,132.14329726516797L133.8,132.5025322523697L134.1,132.87104453100713L134.4,133.1947553165892L134.85,133.49624413617866L135,133.8263169574489L135.15,134.1106269444196L135.29999999999998,134.41761602781602L135.45000000000002,134.66157015263389L135.6,134.93156464231828L135.75,135.2003837255626L135.89999999999998,135.45313275472878L136.05,135.66448723815859L136.20000000000002,135.81996455352902L136.35,135.23954232753306L136.5,135.421874023211L136.64999999999998,134.368035120601L137.1,134.31039118708878L137.25,134.3608455703243L137.7,134.27445470124758L137.85,134.17336596038132L138.15,134.13346030031863L138.3,134.20242774972024L138.45,134.2106562995527L138.6,134.3055638424779L138.75,134.21900398212193L138.9,134.33097591583606L139.35,134.47879253334904L139.5,134.6364473860816L139.65,134.7987999697994L140.25,134.96827225096496L140.4,135.13355978252415L140.7,135.2665541442901L140.85,135.44097154368683L141,135.5433876769106L141.15,135.7182790835877L141.45,135.80437212996662L141.9,135.92957276183176L142.04999999999998,136.0421260547995L142.35000000000002,136.14439756989808L142.5,136.1800717346605L142.65,137.60569446611785L142.79999999999998,138.59090783110813L142.95000000000002,138.381666614945L143.1,139.06026093547575L143.25,139.05319723699532L143.4,139.82196517612385L143.85,140.2647003562036L144,140.99095755656867L144.3,141.13269209973146L144.6,141.61515355557466L144.75,141.537111275344L144.89999999999998,144.12377535681554L145.05,144.75966723843624L145.35,146.9568566586709L145.5,148.32306656988402L145.64999999999998,148.43302221917213L145.8,148.02565078115063L145.95000000000002,147.84347425769045L146.1,149.3187521409289L146.25,149.62181397063864L146.4,149.25131235363534L146.85,148.6094410142956L147,147.80901015644974L147.45,147.6495249903951L147.6,146.83146178778676L147.75000000000003,146.1496581426755L148.05,145.5645594296928L148.35,145.13674813039603L148.5,144.39320711633067L148.65,144.05929408739362L148.8,143.54233101818625L148.95,143.1770197357041L149.1,142.79995820930134L149.25,142.44295086551165L149.4,142.11732136310724L149.7,141.71991334482553L149.85000000000002,141.58355976613942L150,141.35146004793077L150.29999999999998,141.2378887979876L150.75,141.090282294187L150.9,141.17350717486175L151.04999999999998,140.40479310169331L151.20000000000002,139.9056444895764L151.35,139.90999174349116L151.65,139.88445045421133L151.79999999999998,141.06591900361792L151.95000000000002,141.46705838688257L152.25,140.6553552324674L152.4,140.58805858255386L152.70000000000002,140.2479659711926L153.14999999999998,140.3860428119807L153.45000000000002,140.29395000121326L153.6,140.0574545193909L153.75,139.75069558630224L154.20000000000002,139.69186112131302L154.35,139.5928832582953L154.65,138.98274338212562L154.8,139.70077294764963L155.1,139.49836722044645L155.25,139.88356567437773L155.4,139.5644621737352L155.7,139.0091477446997L155.85,140.23933405243784L156.3,140.50041290082106L156.45,140.33779051372642L156.75,139.5927754991024L156.9,139.14254530365653L157.05,139.43724482137296L157.2,138.4563308286115L157.5,137.94292094607712L157.65,138.54591290117986L157.79999999999998,138.38132165167448L157.95,138.067641406723L158.25,137.71029368864131L158.54999999999998,136.54383724306507L158.85000000000002,136.4158042273485L159,136.19628203576278L159.15,136.01265389522777L159.29999999999998,135.89914508722973L159.45,135.319133925366L160.04999999999998,135.30959053947606L160.20000000000002,135.3240913212766L160.35,135.3845491041473L160.5,134.63639617008852L160.95000000000002,133.98830763972416L161.1,134.10194092829875L161.25,133.61299724908343L161.39999999999998,133.73884281447857L161.55,133.06448978141248L161.85,132.88302095320824L162,133.2260575485401L162.14999999999998,129.67300656277473L162.3,126.0668480088984L162.6,126.6792392485608L162.9,127.01141555906796L163.05,127.59639752436124L163.2,128.00674829699037L163.35,128.0608601981512L163.5,128.57864275741545L163.8,128.94792116842402L163.95,129.40935282319697L164.1,129.9980051551215L164.4,130.45127587823885L164.55,130.77044550807727L164.85,130.83958860421032L165,131.05819837154388L165.6,131.41384232155232L165.75,131.7799661029833L166.05,132.11473411342308L166.2,132.43294393164285L166.35000000000002,132.72890994872225L166.5,132.972249581963L166.65,133.2169494379476L166.79999999999998,133.4211012321965L166.95,133.66121522737444L167.25,133.73320827934276L167.4,133.65875997674115L167.54999999999998,133.62702094513978L168,133.7982291390982L168.15,133.825378387792L168.29999999999998,133.79471773603865L168.45000000000002,133.78233755569238L168.75,132.86924066250913L169.64999999999998,132.9395984286349L169.8,132.82478739145836L169.95000000000002,132.93906060765812L170.1,132.72285027589433L170.25,132.64242175748487L170.85,132.75466317511354L171.3,133.4020635785479L171.45,134.1792688081618L171.75,135.30847398857222L172.2,135.36367197431647L172.35,135.9881794687992L172.65,134.69686252218457L172.8,135.41778105629663L172.95,134.58191365069933L173.1,133.80676780060844L173.4,129.77927840816682L173.55,129.81312203515023L173.7,128.32818943552212L173.85,128.78212437455744L174,129.01960249362426L174.15,126.93634605976888L174.3,127.27206344637521L174.45,126.49300954456348L174.6,123.82303300138625L174.9,124.63514923169551L175.04999999999998,124.26736564661343L175.35000000000002,123.90087360942039L175.65,121.83092437719381L175.79999999999998,118.90862914981494L176.10000000000002,116.03240104467764L176.4,116.9766288765439L176.54999999999998,115.98308718316315L176.70000000000002,117.04153345152329L176.85,117.51381199896323L177.29999999999998,115.50875812919571L177.45000000000002,116.26183716554374L177.6,116.24123222505074L177.75,117.26293974426036L178.05,118.336179487378L178.20000000000002,119.08996037896773L178.5,119.83652052446254L178.64999999999998,121.38829286679646L179.39999999999998,122.41249073928509L179.55,123.14328400075729L179.85,123.74602162413404L180,124.3331385033355L180.3,124.7310482780778L180.45,124.84026815069873L180.6,125.54344641479138L180.75,126.22000769751232L181.05,127.95866483503761L181.2,128.21005043938402L181.35,128.66525647631866L181.65,129.0275840630819L181.8,130.03826584467717L181.95,130.41998554887846L182.1,131.26578188797322L182.55,131.4819158732581L182.85,131.55322489500486L183.29999999999998,131.55249732558934L183.60000000000002,131.88773143850298L183.75,131.9175350781353L183.9,131.7485040739695L184.04999999999998,131.53086807840373L184.35000000000002,131.52298995226062L184.65,131.36927516548357L184.79999999999998,131.61008532753485L184.95000000000002,133.09153424335472L185.25,133.78773948258234L185.4,134.65084815406124L185.54999999999998,134.0920778898829L185.70000000000002,133.79412141944104L185.85,133.69425492827787L186.29999999999998,133.50486308131707L186.45000000000002,133.51180586093668L186.6,132.72690078417145L187.35,132.25112769620915L187.5,132.16953433691378L187.64999999999998,132.08360653555943L187.8,131.83803279440022L188.1,131.86895550472212L188.25,131.95039714548977L188.4,131.38050421839063L188.55,131.4221014621644L188.7,131.54408213144748L189.45,131.18167751525468L189.6,131.45125258615195L189.74999999999997,131.5435398866345L189.9,131.1263872467194L190.05,131.05009436752366L190.2,130.5587928171512L190.5,130.6386659204647L190.65,130.83930007901012L190.8,131.02689743823524L190.95,131.57121196688234L191.1,131.03468300155203L191.25,131.12528519769253L191.4,131.51068386658187L191.54999999999998,131.65657688841827L191.7,131.06095493680897L192,130.86928464315127L192.15,131.10991571323086L192.29999999999998,131.26758051798356L192.45,130.8638988018964L192.60000000000002,130.49656966858223L192.75,130.42868414322396L192.9,130.15479044957425L193.2,130.03362222574913L193.5,130.05346377527815L193.79999999999998,129.86804061389753L193.95000000000002,128.85024318787305L194.1,129.01812503027708L194.4,127.65213234998987L194.70000000000002,127.15377526183221L194.85,126.43818558035522L195.14999999999998,125.21063773944297L195.45000000000002,124.01437345874899L195.6,122.9181082083394L195.75,123.67463374931069L196.05,123.48437893721925L196.5,123.54846694200364L196.65,123.63574549677918L197.1,123.65923150709702L197.4,124.5193918964386L197.85,124.29843121763078L198.3,124.76085598161703L198.45,125.30217917674452L198.6,125.80581837173546L198.75,126.38542069896661L198.9,127.01938960697453L199.05,127.53202578643942L199.2,128.29082743454302L199.35,128.79699697948976L199.5,129.2181816767524L199.65,129.85778172592464L199.95,130.3814079074177L200.10000000000002,130.65913729130057L200.25,131.18232063823882L200.7,131.40374783871033L200.85000000000002,131.60789809588584L201.15,131.75574230360556L201.29999999999998,132.03880210529832L201.45,132.35184917454086L201.60000000000002,132.46877527438082L201.9,132.59234486345196L202.35,132.8686988520755L202.5,133.0565669181833L202.65,133.36343780406642L202.79999999999998,133.555523588765L202.95000000000002,133.72709981294412L203.1,133.87335659852556L203.25,134.01070448537183L203.39999999999998,134.21586157011728L203.55,134.41512860843883L203.70000000000002,134.5809183900844L203.85,134.6827767450532L204,134.8134859854527L204.14999999999998,135.05509044481963L204.3,135.37791252166406L204.6,135.50568475171937L204.75,135.64972151699558L204.89999999999998,136.01054596581662L205.05,136.0383952773558L206.55,137.17898084610192L207,137.23292953459972L207.15,137.1652668791651L207.3,137.19845372094622L207.45,137.0085763668609L207.75,137.4930194022065L207.9,137.7985601242658L208.05,138.7168183195075L208.2,139.55722549235531L208.35,139.1739324292133L208.65,139.6611206523854L208.79999999999998,140.7447950569147L208.95,141.14640578192518L209.10000000000002,141.31475655549357L209.25,141.40225546750727L209.4,140.64660410936068L209.54999999999998,140.39010613692523L209.7,139.95797810828176L209.85000000000002,140.46272695897773L210,138.82992695772282L210.15,137.8693423764882L210.45000000000002,136.2724902651281L210.6,136.02071909870315L210.9,135.2507098394205L211.04999999999998,135.69811586989218L211.20000000000002,134.5607908848779L211.5,133.07243369243L211.64999999999998,133.2880243190383L211.8,132.38792498278525L211.95000000000002,131.50011261512248L212.1,130.19759377334822L212.25,129.44349888463927L212.85,127.62797899775973L213.14999999999998,125.04055366038688L213.6,123.4102333733381L213.75,122.1129599448887L214.05,121.20957677430192L214.2,121.52474093319672L214.35,122.37185671904321L214.65,123.13028428847029L214.8,123.89611372974296L214.95,124.63703456299895L215.1,125.35307769892287L215.25000000000003,126.03849209225088L215.4,126.69168200580937L215.55,127.29953873512949L215.7,127.87065901105777L215.85,128.39452866310972L216.3,128.9058115989079L216.45,128.78651827516893L216.6,126.62787341801102L216.9,123.89765026053658L217.04999999999998,122.83871332912827L217.2,122.3533567870663L217.35000000000002,122.54527180517061L217.5,123.08202744728413L217.95,123.59379940238426L218.10000000000002,124.35243014585113L218.25,124.69716968855234L218.4,125.22898101294135L218.54999999999998,125.79960405335595L218.70000000000002,126.39581428447164L218.85,126.9667859219487L219.15,127.37594375876563L219.29999999999998,127.65457012233114L219.45000000000002,127.99701081402961L219.6,128.2248644939072L219.75,128.6976318111725L219.9,129.1018290683829L220.04999999999998,129.47560006601915L220.20000000000002,129.70719817831255L220.64999999999998,129.9092027483096L220.8,130.27580115404345L221.1,130.62486838319896L221.70000000000002,130.6279783635834L221.85,130.51274040212124L222.15,128.2192449066419L222.3,127.24945331906903L222.75,126.92517473307213L223.05,125.84305217456081L223.2,125.55129121913436L223.35,124.68741952715023L223.65,124.94275334639157L223.8,124.41852366689022L223.95,123.15110948937198L224.1,121.83627206478289L224.4,120.9312171153648L224.55,119.5078498243522L224.7,115.20690864925704L224.85,110.74684399472724L225,107.4037770572309L225.29999999999998,103.26079194150617L225.45,98.83259990323515L225.60000000000002,95.17212464645131L225.9,92.83982179383624L226.04999999999998,89.95328076865658L226.5,87.30101598236799L226.79999999999998,85.70711647142645L226.95,83.76670159552017L227.25,82.09248057634846L227.4,79.86816687679385L227.54999999999998,78.35191461842659L227.70000000000002,75.88754234494559L227.85,74.43853619500688L228,73.3305237040524L228.15,72.78862562973175L228.6,70.41385544582207L228.75,68.61556199826863L228.89999999999998,67.01195356395426L229.05,66.30605058346006L229.20000000000002,66.81091395101978L229.35,66.64394977286148L229.5,67.67762446394069L229.8,69.78835002386907L229.95000000000002,72.64812675396644L230.1,76.13300975409432L230.25,78.52702834710324L230.4,81.42132366161965L230.55,83.86712198377616L231,84.31080683889807L231.3,85.71552036050174L231.45,87.6284882137662L231.6,89.5277611119101L231.75,91.2562960724481L231.9,93.18897304969403L232.05,95.58941875786049L232.2,97.4472150583658L232.35,95.78506154074353L232.5,95.30826608007432L232.65,96.25842383207569L233.1,97.0893822072463L233.25,98.19246970534807L233.7,99.9326015802526L233.85000000000002,101.83320969340318L234.15,103.70805498512023L234.29999999999998,104.81869126082334L234.45,105.65595289941629L234.75,107.0360231514332L234.9,109.175264209234L235.04999999999998,109.7101531043529L235.35000000000002,109.04677667535255L235.5,110.73414362652049L235.65,111.72937372397301L235.95000000000002,110.44598423908974L236.1,110.94029818659563L236.25,110.47646459260785L236.54999999999998,110.42628786570118L236.70000000000002,110.84588222887602L236.85,111.1699310821123L237.14999999999998,111.67323117688862L237.3,112.06446462408122L237.6,112.43287196670016L237.75,112.802720643768L237.89999999999998,112.3559209712132L238.05,113.46203940327018L238.20000000000002,113.88018137270859L238.35,112.91836457793337L238.64999999999998,112.95506690006621L238.8,113.14702019499335L239.25,112.51246448067866L239.55,110.76878327771873L240,109.88166502659195L240.6,106.4645890286711L241.35,103.2306873602453L241.8,101.12263135122281L241.95,99.41532126601518L242.1,96.84283865309332L242.25,95.84331325707134L242.4,94.18414096876363L242.54999999999998,92.59045488864474L242.85000000000002,89.58729213016981L243,88.06232882115829L243.29999999999998,85.28772410280692L243.45,81.73602433729748L243.75,77.31650508226583L243.9,77.21609269250968L244.04999999999998,79.39452871317386L244.20000000000002,77.54336628281817L244.5,75.67422864088083L244.65,71.22180509426678L244.79999999999998,66.5879308790563L244.95000000000002,64.28565896437269L245.1,60.365614146021585L245.25,58.181124568902234L245.39999999999998,55.12030077985314L245.55,53.41803938413116L245.70000000000002,53.252185750131176L246,51.14372396086367L246.3,49.58645933133164L246.45000000000002,49.4972171214977L246.75,47.271566388655515L247.20000000000002,50.809371649623L247.5,50.695234613973454L248.1,48.167870353438985L248.25,45.35901211226047L248.4,43.203894462528666L248.55,40.1500554190543L249.00000000000003,38.4467846504871L249.15,36.87432205204499L249.3,35.27111647480271L249.75,37.12424120008285L249.9,34.287330316340984L250.2,35.8628487484923L250.35,35.95476024270542L250.5,34.18781865148776L250.95,32.636684235527014L251.10000000000002,32.08552519540763L251.54999999999998,30.379015377298543L251.7,28.039009911443145L251.85000000000002,28.405530132862822L252,28.12931715052477L252.15,26.515606805953297L252.29999999999998,25.444681283798616L252.45000000000002,24.59233619917191L252.75,23.908134901499125L252.9,23.388515464535715L253.04999999999998,21.769038857206624L253.20000000000002,22.417423569476057L253.35,20.987408759269158L253.5,19.63992096050896L253.65,16.452123727771067L253.79999999999998,15.686846663562449L253.95000000000002,12.95377260945665L254.55,10.20943816887467L254.85,9.842597132986924" style="fill: none;" fill="none"></path></g></g></g></g><g opacity="0.2"><g><g><g><path stroke="rgb(255, 112, 67)" stroke-width="2px" d="M30.450000000000003,126.06094466315375L30.75,131.8047590586874L30.900000000000002,121.91196995311313L31.2,133.2425845199161L31.5,102.0340325832367L31.650000000000002,130.8496657212575L31.799999999999997,107.22761935657924L31.95,29.788210550944L32.1,129.29267234272427L32.25,131.2991625997755L32.4,129.46014471186533L32.55,130.75815002785788L32.7,130.20637281073465L32.85,131.6953148643176L33,105.61130401823256L33.300000000000004,115.84341433313159L33.6,119.58573147985669L33.75,134.08541356523833L34.5,124.74447623888652L34.65,131.96746711598502L34.8,115.91845504442851L34.95,109.8080055448744L35.1,119.7574812968572L35.400000000000006,87.41343169742161L35.85,51.62226602766249L36,34.85065290662976L36.300000000000004,93.90258121490479L36.45,105.0035020775265L36.6,124.31422522332934L36.75,131.50809385379154L37.05,47.034474796719024L37.35,87.0690007739597L37.5,62.425718890296096L37.949999999999996,42.47810692257352L38.1,48.788496017456055L38.25,50.53748120201958L38.4,124.27390746275584L38.550000000000004,66.6956787109375L38.99999999999999,40.966239823235384L39.15,50.13369295332167L39.449999999999996,26.86456521352133L39.6,66.64563899570042L39.75,59.75358772277832L39.900000000000006,29.438253190782348L40.050000000000004,62.73812760247124L40.199999999999996,96.67286321851942L40.349999999999994,88.41706938213771L40.65,112.53991842269897L40.8,129.443344367875L40.95,37.43830786810983L41.1,33.43897840711804L41.4,57.802727275424544L41.699999999999996,123.18149313661786L41.85,111.02810083495245L42.15,43.64669365353055L42.300000000000004,41.793026818169466L42.599999999999994,89.26737202538385L42.75,106.7099827395545L42.9,133.5438136325942L43.05,116.97983739111157L43.2,162.76733681890698L43.35,127.36493616633945L43.65,131.7683032022582L43.8,49.77683226267496L43.949999999999996,70.11081854502359L44.1,125.21368816163806L44.849999999999994,22.103191057840974L45,119.44454917642804L45.3,103.69335227542454L45.6,73.83681572808159L45.75,84.76678721110025L45.900000000000006,52.15026707119411L46.35,121.00325895680322L46.95,54.85271347893608L47.4,105.60940135849847L47.7,28.31075636545816L47.85,19.187146928575316L48,72.52227825588649L48.6,58.88657845391167L48.75,24.86059061686197L48.9,25.236888143751344L49.050000000000004,71.73252121607462L49.35,113.21520466274684L49.5,100.4204568862915L49.95,20.749034881591797L50.400000000000006,76.78504239188301L50.550000000000004,130.75178248352475L50.849999999999994,132.37266114022998L51.15,45.45100922054715L51.3,10.802957746717652L51.45,48.39140362209744L51.6,58.65101644727919L51.75,78.5991989771525L51.9,132.01546919345856L52.199999999999996,107.53132345941331L52.35,127.4785122209125L52.5,105.04330232408311L52.65,47.030749638875335L52.95,49.17735534244113L53.099999999999994,85.47386932373047L53.25,95.66649532318115L53.55,13.941068437364379L53.7,95.43959548738268L53.85,29.737454096476228L54.15,96.32563135359023L54.3,55.00916067759195L54.6,87.35790798399184L54.75,87.54983848995631L55.050000000000004,52.805206404791946L55.2,48.22083854675293L55.349999999999994,29.24637455410428L55.65,28.897369702657073L56.25,36.89519871605765L56.400000000000006,27.892388131883422L56.55,60.54943233066136L56.699999999999996,75.59071906407675L57,67.56809181637233L57.15,103.68243379063075L57.45,107.35551722844441L57.75,109.66094904475743L57.9,82.57874266306558L58.05,41.22597291734485L58.2,33.20281283060709L58.5,39.79135333167184L58.650000000000006,43.22302532196045L59.7,124.40526643064288L60.3,55.1921272277832L60.75,120.64278981420728L60.900000000000006,117.46418571472168L61.050000000000004,117.55592362085979L61.199999999999996,84.74181922276816L61.800000000000004,56.514822324117034L61.95,54.97688855065239L62.1,42.3239042494032L62.25000000000001,46.234876738654265L62.699999999999996,59.24598545498317L62.85,64.48729668723213L63,128.54393329885272L63.15,133.93949789471097L63.300000000000004,91.02775430679321L63.449999999999996,134.1694650914934L63.75,100.31484158833821L63.9,117.66343450546265L64.05,114.37486987643771L64.35000000000001,135.6668748060862L64.5,116.49659718407526L64.64999999999999,112.18421536021764L64.8,120.52914656533136L64.95,139.71416596902742L65.1,137.34060318188534L65.55,137.77757009118795L65.7,157.3816863298416L66,155.98388686445026L66.60000000000001,117.57731970151265L66.75,147.04529399342007L67.05,124.65940943029193L67.2,135.6062151491642L67.35,137.77369389351873L67.5,137.1593413187398L67.64999999999999,135.72712952891985L67.8,139.82490439050727L68.25,140.84208496908346L68.69999999999999,150.2745873530706L68.85,154.51681125164032L69,141.80600713690123L69.15,141.69501216875182L69.45,141.96321616570154L70.05,138.6315834329774L70.35,141.0116855998834L70.64999999999999,139.67868862963385L70.80000000000001,136.151181133257L70.95,138.2409616758426L71.1,138.45356726775128L71.25,138.07697224823966L71.55,141.9944019847446L71.7,139.3393293288019L72,139.8366009145975L72.3,132.72251240412396L72.60000000000001,121.9782506492403L73.35,137.26621547838053L73.65,127.71128035916223L73.8,133.89691763122877L74.1,121.08339936203427L74.25,130.98361461692386L74.4,131.59657401508755L74.55,130.90716930892734L74.7,131.46438160207538L74.85,127.89838230609894L75,130.86968608697254L75.14999999999999,138.31269486362322L75.30000000000001,135.27393018537097L75.45,134.67803578244315L76.05,134.45262483093472L76.2,135.38403482900725L76.5,137.92922133331498L76.94999999999999,130.50291423665152L77.55,113.35105739699469L77.7,95.26206578148737L77.85,88.65604061550563L77.99999999999999,81.43551529778374L78.3,53.88467227088081L78.45,56.10926108890111L78.6,72.17921008004082L78.75,90.8211825158861L78.89999999999999,61.42144462797377L79.05000000000001,92.32784854041205L79.5,137.8027873320712L79.64999999999999,120.59076609876422L79.95,98.13295062383015L80.25,51.16467518276637L80.55,66.11539814207289L80.85000000000001,41.11227544148764L81.15,91.75474951002333L81.3,110.7017204231686L81.45,133.0848099390666L81.6,81.7024817996555L81.75,108.16183943218654L81.9,78.0289904806349L82.05,114.23710505167644L82.2,90.02025000254314L82.35,109.29062827428181L82.65,138.29635916971085L82.95,118.34901208347745L83.1,138.22968145066665L83.39999999999999,137.7489229200615L83.7,138.7691104805304L83.85,138.48031879984774L84,132.43692247072858L84.14999999999999,138.06082012297378L84.3,129.3482620716095L84.45,134.24587179223695L84.60000000000001,136.61389583845934L84.75,91.34194543626573L84.9,137.5498189801971L85.05,139.8480423655775L85.19999999999999,137.79763901068105L85.5,139.95159173342915L85.65,139.1316508948803L85.95,141.8253879778915L86.25,140.29480328659216L86.4,139.76510764989587L86.55,140.13500712977515L86.7,138.26722319134407L86.85,137.67477953268423L87.15,140.54338345262738L87.3,142.0234487851461L87.6,149.19490693675147L87.75,145.2295105987125L87.89999999999999,144.38825325171152L88.05000000000001,140.45014487372504L88.2,137.8743644054565L88.5,143.4443271358808L88.64999999999999,140.20825275116496L88.8,138.70591959874662L88.94999999999999,141.09553554322986L89.69999999999999,116.26301092571683L89.85000000000001,132.32958959208594L90.3,128.9934920668602L90.45,120.143852074941L90.75000000000001,118.89062056276532L90.9,77.16346655951607L91.2,97.7070754898919L91.5,63.82154024971855L92.25,119.23123909367456L92.39999999999999,111.95211680730183L92.85000000000001,132.8789831797282L93,137.2568591874507L93.14999999999999,136.93905098570718L93.3,127.659360382292L93.44999999999999,138.71020778516927L93.60000000000001,132.5842259393798L93.9,139.1277305641108L94.2,69.81590392854478L94.5,135.038829697503L94.8,130.94058373901578L95.25,130.23139797316657L95.4,142.96057796147136L95.85,117.82134583261279L96,115.11517190933228L96.14999999999999,114.56791792975531L96.30000000000001,115.38683965471057L96.6,128.70808426539105L96.75,108.21724526087444L97.2,131.29849124617047L97.35000000000001,127.52316342459784L97.65,113.70502755377028L98.10000000000001,131.11741733551025L98.55,109.40960462888081L98.7,127.63028293185764L98.85,131.46821580330533L99,134.70431199669838L99.15,134.24586530857616L99.45,132.23304965098697L99.6,125.76246756977505L99.75,121.01920051044888L99.9,112.42273155848186L100.05000000000001,137.37871237181955L100.2,114.3660945362515L100.35,132.87095522880554L100.64999999999999,126.05961492326526L100.95,123.30687416924371L101.10000000000001,138.54984020048545L101.55,137.95730022630758L101.69999999999999,138.02189185511736L102.3,137.77870635274382L102.75,117.66996060477362L102.9,137.08074446684785L103.2,139.48699462993278L103.35,134.4648736450407L103.65,134.6258426076836L103.8,139.04910884590612L103.95,138.1669118778987L104.39999999999999,138.28034212378165L104.55000000000001,134.43911759720908L104.85,125.50510513782501L105.45,136.44714507129459L105.9,134.9673420323266L106.05,134.24841250313654L106.19999999999999,134.53500534097353L106.35000000000001,138.05087650815645L106.5,138.19567529443236L106.65,135.00075852539806L106.8,139.26351065188646L107.1,138.68603747131095L107.25,139.41221753838988L107.4,138.59281328724077L107.55,134.49291842513614L107.7,134.57489193810358L107.85,138.5853207540802L108,138.2554987801446L108.6,137.82959944299526L108.75,135.5768365032143L109.64999999999999,133.7511855661869L109.95,140.18576741549703L110.10000000000001,135.7237315012349L110.25,135.81740478012296L110.4,135.3315560784605L110.55,134.23304445876016L110.69999999999999,137.55742910338773L110.85000000000001,138.23864737732544L111,137.14950074255466L111.15,138.6365020080573L111.3,136.62749841147L111.45,132.9863897363345L111.6,133.30761269066068L111.74999999999999,131.31968869103326L111.9,134.2140025364028L112.05,137.13273222744465L112.2,137.95460667047234L112.35,136.95107257697316L112.64999999999999,137.02888755831452L112.80000000000001,134.86676453881793L112.95,139.34729988459083L113.25,136.5396408289671L113.55000000000001,136.31834037105241L113.85000000000001,121.86701814333598L114,128.45998993184833L114.44999999999999,135.6706235408783L114.60000000000001,136.26079743935003L114.75,135.00961225893764L115.05,138.01790598779917L115.2,137.88811639737753L115.35,135.550970233149L115.65,134.91975667741565L115.95,128.49959684742822L116.1,131.60939633846283L116.4,136.98522113429175L116.55,127.90915461381276L116.7,127.53062199221716L116.85,124.6288937860065L117,107.55151475800409L117.14999999999999,118.05921838018628L117.30000000000001,124.45575292905171L117.45,137.50578630301686L117.6,138.26063910747567L117.89999999999999,138.4266779567115L118.05,137.05561482906342L118.2,136.66978514194489L118.65,136.60887777970896L118.8,137.46488457090325L118.94999999999999,134.31553371747336L119.25,111.28257626957362L119.4,84.8516312175327L119.55,60.2224719259474L119.7,46.829081853230804L120,99.29464345508153L120.3,132.22710649172467L120.45,137.14896200928422L120.6,121.35512369208865L120.9,140.67110656036272L121.2,128.88239277071423L121.5,128.8845695124732L121.64999999999999,109.68974828720093L121.80000000000001,122.55075436168246L122.25,123.81124521626367L122.85000000000001,129.47832489675946L123,74.13645044962564L123.15,122.5853771103753L123.3,123.5168764061398L123.44999999999999,115.20373164282904L123.75,123.8048134247462L123.9,111.55861046579149L124.35,122.54190593295627L124.50000000000001,118.65008499887256L124.8,89.60083023707072L125.1,118.03498599264356L125.25,97.73744259940253L125.7,115.17535914315118L126,109.69013730684917L126.14999999999999,96.29615545272827L126.3,92.10306119918823L126.60000000000001,120.07143547799853L126.75,132.6966449552112L126.89999999999999,138.51573458360508L127.05,138.61539316094584L127.19999999999999,139.37979164554014L127.35000000000001,138.209475711195L127.5,139.13326348447137L127.65,138.9694406427443L127.8,138.86168533149691L128.4,114.96713932355244L128.54999999999998,124.6524318324195L128.85,139.23146869490543L129.15,139.25379017078214L129.29999999999998,128.93744317690533L129.45,137.67772724065514L129.6,137.13850224349233L129.75,126.69495120313434L129.9,102.64793859587775L130.05,126.97635151280298L130.2,139.16744630204306L130.35,138.40877974889656L130.65,138.33525246816376L130.8,138.74128275571599L130.95,136.45517788496284L131.1,138.55814944466368L131.25,138.3570906902767L131.55,138.06666156980725L131.7,126.06860127713946L131.85,101.10050331221686L132.15,139.23514286759826L132.3,137.39548722323445L132.45000000000002,138.07908260615335L132.6,139.15532730850907L132.75,138.49349165304253L132.9,139.09796952952942L133.04999999999998,138.9632837805483L133.20000000000002,139.37617015259133L133.35,138.91797511155406L133.8,138.92131589146123L134.1,139.45559411330356L134.4,138.978795202242L134.85,138.8832236106197L135,139.72403321663538L135.15,139.19065633416176L135.29999999999998,139.9028738008605L135.45000000000002,139.0205240431759L135.6,139.7558058069812L135.75,140.0036228166686L135.89999999999998,139.9692333324088L136.05,139.44095319675074L136.20000000000002,138.5980214903959L136.35,124.86860179901123L136.5,138.67976300066545L136.64999999999998,115.53812114397685L137.1,133.28041373358832L137.25,135.26236068209013L137.7,132.73082917266422L137.85,132.36711996793747L138.15,133.42042897807227L138.3,135.4347329305278L138.45,134.3576834069358L138.6,136.00136465662055L138.75,132.67235893011093L138.9,136.3316819767157L139.35,137.11996869908438L139.5,137.45341239621243L139.65,137.69970368262796L140.25,137.9963901804553L140.4,138.08690492187938L140.7,137.64288736300335L140.85,138.55744847251722L141,137.37335141582622L141.15,138.84322553873062L141.45,137.34267618507147L141.9,138.1666482028862L142.04999999999998,138.05321979895234L142.35000000000002,137.97177728306917L142.5,136.8174950182438L142.65,163.07861383756003L142.79999999999998,156.19462588098315L142.95000000000002,134.64296035634146L143.1,151.1853330400255L143.25,138.92698360565635L143.4,153.5582526922226L143.85,148.1754591398769L144,153.96766640080347L144.3,143.6651942200131L144.6,150.235738436381L144.75,140.14265770216784L144.89999999999998,190.34209394454956L145.05,156.12173538737827L145.35,186.21607139375476L145.5,172.73440215322705L145.64999999999998,150.3977014621099L145.8,140.7467686716053L145.95000000000002,144.58835788567862L146.1,175.6789060168796L146.25,155.03689987129636L146.4,142.63121742341252L146.85,137.1405323661036L147,133.50697199834718L147.45,144.79985607994928L147.6,132.21437022421094L147.75000000000003,133.96724206871457L148.05,135.11005978451834L148.35,137.4926481222113L148.5,131.107672393322L148.65,138.0929612873329L148.8,134.30527391367488L148.95,136.6496653109789L149.1,136.0626513130135L149.25,136.06397059063116L149.4,136.2989979899592L149.7,134.6190568672286L149.85000000000002,139.14720431301328L150,137.20431979993978L150.29999999999998,139.20860627541938L150.75,138.45286042439207L150.9,142.6605630616347L151.04999999999998,126.66946805848016L151.20000000000002,130.9868947598669L151.35,139.98766814834542L151.65,139.42808062500424L151.79999999999998,162.17630987697177L151.95000000000002,148.63458661238352L152.25,126.15190452999539L152.4,139.38560712089142L152.70000000000002,134.17121685875787L153.14999999999998,142.85318938228818L153.45000000000002,138.6484426088217L153.6,135.83177109890514L153.75,134.2695501214928L154.20000000000002,138.64061134122312L154.35,137.82435427192183L154.65,128.08081012301975L154.8,152.53047103352017L155.1,135.88179696268506L155.25,146.76626257763968L155.4,133.8627449075381L155.7,129.08683143721686L155.85,162.2202101548513L156.3,145.1653500596682L156.45,137.43206597450705L156.75,126.2809034453498L156.9,131.09786615106793L157.05,144.70291356245676L157.2,120.92943363719516L157.5,128.76935191286935L157.65,149.32012764612833L157.79999999999998,135.44041762749353L157.95,132.46282646391126L158.25,131.32523163159686L158.54999999999998,115.70168150795831L158.85000000000002,134.12811996539435L159,132.27387608422174L159.15,132.73160013887616L159.29999999999998,133.8709782726235L159.45,124.95553825961218L160.04999999999998,135.13907004064984L160.20000000000002,135.58319019609027L160.35,136.46480420562955L160.5,121.26845600869922L160.95000000000002,122.40831069151561L161.1,136.13233195245266L161.25,124.87658849027423L161.39999999999998,135.98744187917976L161.55,121.01520068115659L161.85,129.64054962661532L162,139.35540954437522L162.14999999999998,66.18735970391167L162.3,61.6322791311476L162.6,137.62139970064163L162.9,132.9467168052991L163.05,138.0488111306396L163.2,135.3388649324576L163.35,129.0277275641759L163.5,137.83034244842L163.8,135.5461599462562L163.95,137.65417880564928L164.1,140.5160005953577L164.4,138.5502829497887L164.55,136.4733443657557L164.85,132.07503222756915L165,134.96430119540958L165.6,137.76846157924996L165.75,138.3218381976088L166.05,138.09634365845056L166.2,138.11869294775857L166.35000000000002,138.01720840483904L166.5,137.32022378345332L166.65,137.58922799676657L166.79999999999998,137.06887008415328L166.95,137.95155397140317L167.25,135.01957469847468L167.4,132.32852332459555L167.54999999999998,133.05991032388476L168,136.8573642273744L168.15,134.310479114453L168.29999999999998,133.24687552452087L168.45000000000002,133.56112942761845L168.75,116.55409428808423L169.64999999999998,134.19674568374953L169.8,130.7733524441719L169.95000000000002,134.98088581032223L170.1,128.8596203856998L170.25,131.20533106062146L170.85,134.7601843542523L171.3,144.96976512670517L171.45,148.06631319390402L171.75,155.4850269291136L172.2,136.34994541770882L172.35,147.14683224757513L172.65,111.6237087779575L172.8,148.29909901486502L172.95,119.64669793181949L173.1,119.9565202527576L173.4,57.81640190548366L173.55,130.41783740785388L173.7,101.79552581575182L173.85,136.89299960600005L174,133.26284360223346L174.15,89.71287732654149L174.3,133.27063637309604L174.45,112.57293322351244L174.6,76.11609363555908L174.9,139.14598074307045L175.04999999999998,117.69583630561829L175.35000000000002,117.35242154863147L175.65,84.84522771835327L175.79999999999998,66.69327857759264L176.10000000000002,64.64017433590358L176.4,133.84802051385245L176.54999999999998,98.23055919011433L176.70000000000002,135.95377149184546L176.85,125.95244944095612L177.29999999999998,79.68260690901015L177.45000000000002,129.7177965508567L177.6,115.87306470341153L177.75,135.51873258749643L178.05,137.512746218178L178.20000000000002,132.5584604607688L178.5,133.17600086000232L178.64999999999998,149.11524396472507L179.39999999999998,140.71278102695942L179.55,136.20104284253387L179.85,134.515691988998L180,134.82369859019914L180.3,131.84087010224658L180.45,126.79180059168073L180.6,138.1077825675408L180.75,138.3087536359413L181.05,159.0248593489329L181.2,132.70178944534726L181.35,136.79884358909396L181.65,135.50162603788905L181.8,148.09705164035162L181.95,137.24052441451283L182.1,146.37840704123178L182.55,135.34378161032996L182.85,132.82736911376315L183.29999999999998,131.53949717018338L183.60000000000002,137.8776692673564L183.75,132.45006426175433L183.9,128.7282708485921L184.04999999999998,127.64216453499265L184.35000000000002,131.38222418891058L184.65,128.62271095646753L184.79999999999998,135.9128631287151L184.95000000000002,159.56195166375903L185.25,146.22748215330972L185.4,150.07280875576868L185.54999999999998,124.10801298088498L185.70000000000002,128.47025769286685L185.85,131.9098480012682L186.29999999999998,130.12082385354572L186.45000000000002,133.6358589231968L186.6,118.70227611064911L187.35,123.75005006790161L187.5,130.7116303510136L187.64999999999998,130.54825506607693L187.8,127.45013972123463L188.1,132.4214801589648L188.25,133.40559023618698L188.4,121.19770040776996L188.55,132.16535787449942L188.7,133.7236235241095L189.45,124.70625918441348L189.6,136.26799960765572L189.74999999999997,133.19252240657806L189.9,123.67273535993365L190.05,129.68689896000757L190.2,121.78025379445819L190.5,132.06583250231213L190.65,134.42421608169875L190.8,134.3788728945785L190.95,141.29698288440704L191.1,121.4480239417818L191.25,132.74415840042963L191.4,138.39695819560438L191.54999999999998,134.26338239179717L191.7,120.41842685805426L192,127.44453430175781L192.15,135.40949351257748L192.29999999999998,134.08472335007457L192.45,123.65094436539545L192.60000000000002,123.93316043747797L192.75,129.21571069955826L192.9,125.26087860266368L193.2,127.86859754721324L193.5,130.40799108478757L193.79999999999998,126.55491356054942L193.95000000000002,110.6643155945672L194.1,132.0178251200252L194.4,103.24467823240492L194.70000000000002,118.24916842248706L194.85,113.65208315849304L195.14999999999998,103.27690556314256L195.45000000000002,102.63961357540553L195.6,103.33012345102098L195.75,137.1921750191185L196.05,120.08492031362323L196.5,124.6935865746604L196.65,125.19523212644788L197.1,124.07887776692708L197.4,139.88867281542883L197.85,120.35032248497009L198.3,133.0234267645412L198.45,134.9745011727015L198.6,134.80480549732843L198.75,136.7417113383611L198.9,138.34709820854994L199.05,136.69177035159535L199.2,141.84903801480928L199.35,137.84119620712266L199.5,136.74387805991702L199.65,141.2861071328322L199.95,139.73752099937863L200.10000000000002,135.6215849618117L200.25,140.5305211957958L200.7,135.36019234524832L200.85000000000002,135.25563948353133L201.15,134.397411449088L201.29999999999998,137.09649327894053L201.45,137.9453505815731L201.60000000000002,134.5580020017094L201.9,134.80027695496878L202.35,137.80657106389603L202.5,136.41337934467526L202.65,138.84658363295927L202.79999999999998,136.98769789271884L202.95000000000002,136.79281083742777L203.1,136.48666180504694L203.25,136.46482616166273L203.39999999999998,137.88159287679525L203.55,137.97561701014638L203.70000000000002,137.54323769609132L203.85,136.5027741442124L204,137.148988828063L204.14999999999998,139.3720606904891L204.3,141.14607302678957L204.6,137.7887093151609L204.75,138.2233595682515L204.89999999999998,142.4577299853166L205.05,136.53600467410354L206.55,157.5588777065277L207,138.1968806290792L207.15,135.95627565847502L207.3,137.79143370522394L207.45,133.61586213443013L207.75,146.1490109960238L207.9,143.25793868634435L208.05,155.12418644958072L208.2,154.57355742984348L208.35,132.3252809047699L208.65,148.36616305510202L208.79999999999998,160.10780753029718L208.95,148.3223559061686L209.10000000000002,144.32283547189502L209.25,142.9656794236766L209.4,127.1446826722887L209.54999999999998,135.80701972378625L209.7,132.23674710591632L209.85000000000002,149.48154132896L210,109.65517976548936L210.15,120.70568957593707L210.45000000000002,107.74005725648668L210.6,131.52209089861975L210.9,121.49224250846439L211.04999999999998,143.6923330558671L211.20000000000002,114.23915388849048L211.5,106.47857970661586L211.64999999999998,137.14018136428462L211.8,116.3050179746416L211.95000000000002,115.63674823443095L212.1,106.92428541183472L212.25,115.96938832600911L212.85,95.18840667936537L213.14999999999998,78.80863300959268L213.6,94.27979352739122L213.75,98.933376232783L214.05,105.0679944621192L214.2,127.15607033835516L214.35,137.50805764728122L214.65,136.68181085917684L214.8,137.57989638795456L214.95,137.87575209306345L215.1,138.14728241062L215.25000000000003,138.28542474284768L215.4,138.36283008392073L215.55,138.16067689864173L215.7,138.07539299792714L215.85,137.7549920686417L216.3,138.04137650835844L216.45,126.65499416987102L216.6,88.05737002690634L216.9,75.11422893736098L217.04999999999998,103.91770815849304L217.2,113.68104272418553L217.35000000000002,125.9743948645062L217.5,132.67273675070868L217.95,132.73810207181506L218.10000000000002,137.90758701496654L218.25,130.85694981945886L218.4,134.73134562042026L218.54999999999998,135.99545347359447L218.70000000000002,137.0488536970483L218.85,137.1688640481896L219.15,134.68674510717392L219.29999999999998,132.63304495811462L219.45000000000002,134.1157152487172L219.6,132.29613684945636L219.75,137.14500255551604L219.9,136.32399515476493L220.04999999999998,136.15411204265223L220.20000000000002,133.84537576966815L220.64999999999998,133.51860515938864L220.8,136.82615379989147L221.1,136.8619752890534L221.70000000000002,130.68354725837708L221.85,128.45367720392017L222.15,87.2392404874166L222.3,109.921290424135L222.75,121.1309894323349L223.05,106.50776796870763L223.2,120.33812848726909L223.35,109.2518253326416L223.65,129.50503875811893L223.8,115.05162731806438L223.95,100.50504861937628L224.1,98.3428561952379L224.4,104.7597635851966L224.55,94.0752304924859L224.7,38.35801633199057L224.85,31.054745356241853L225,47.67010932498508L225.29999999999998,29.234246571858733L225.45,19.709998766581208L225.60000000000002,29.767029020521363L225.9,51.16641044616699L226.04999999999998,38.37678358289929L226.5,39.910548951890746L226.79999999999998,57.227440304226334L226.95,49.095515039232055L227.25,52.17762576209175L227.4,40.12429756588406L227.54999999999998,51.25963370005289L227.70000000000002,31.854324552747926L227.85,48.54780366685657L228,53.53264013926187L228.15,63.10603173573813L228.6,27.981641027662477L228.75,36.48379039764404L228.89999999999998,38.358799086676726L229.05,53.69302940368652L229.20000000000002,75.83177449968126L229.35,63.66064643859863L229.5,86.14724583095973L229.8,107.50263502862718L229.95000000000002,123.74640153514014L230.1,138.40063619034157L230.25,121.30317188633813L230.4,133.1363739040163L230.55,127.56846181551616L231,92.2385343445672L231.3,110.81483554840088L231.45,121.80925344096289L231.6,123.46382591459485L231.75,122.14162829187183L231.9,127.72189941671161L232.05,138.48040150566442L232.2,130.64217914475336L232.35,66.08582793341743L232.5,86.78892077340019L232.65,113.23577083481683L233.1,111.93688374095494L233.25,117.90235386954413L233.7,131.0251465903388L233.85000000000002,135.79313201705614L234.15,137.20764915976258L234.29999999999998,124.66345641348096L234.45,120.61608066823749L234.75,131.69501425822574L234.9,147.3990619778633L235.04999999999998,119.26750751336415L235.35000000000002,97.1936167081197L235.5,140.88388896154032L235.65,129.51206999354892L235.95000000000002,87.51447778277928L236.1,119.77266249391766L236.25,102.18872094154358L236.54999999999998,109.5297338962555L236.70000000000002,118.3431626425849L236.85,116.96001153522067L237.14999999999998,120.66615928543939L237.3,119.05499433146582L237.6,119.01554656028748L237.75,119.4111488925086L237.89999999999998,104.37253814273411L238.05,133.22608006662793L238.20000000000002,121.35151052474976L238.35,95.73269467883641L238.64999999999998,113.61086122194926L238.8,116.57682718171014L239.25,101.17427086830139L239.55,79.61281914181178L240,94.03070306777954L240.6,45.40853299034964L241.35,45.44757641686331L241.8,63.45604568057591L241.95,68.90923351711696L242.1,50.87791347503662L242.25,77.98386891682944L242.4,64.53817574183145L242.54999999999998,64.11459228727553L242.85000000000002,35.92700661553275L243,60.814399507310654L243.29999999999998,35.71129639943442L243.45,18.274520979987273L243.75,-1.651131418016206L243.9,75.42193169063991L244.04999999999998,118.31865912013583L244.20000000000002,44.46693568759494L244.5,42.27661832173666L244.65,-8.333762804667174L244.79999999999998,-16.20978387196857L244.95000000000002,23.148838149176726L245.1,-9.677450815836607L245.25,19.148829672071656L245.39999999999998,0.4297323226928711L245.55,23.00216123792859L245.70000000000002,50.28872553507486L246,13.469887839423308L246.3,21.76137246025931L246.45000000000002,47.90264405144583L246.75,7.503807067871094L247.20000000000002,114.02260904841953L247.5,48.65584267510306L248.1,3.0091164906819756L248.25,-4.829454951816132L248.4,4.696414947509766L248.55,-14.41571013132733L249.00000000000003,8.012871106465667L249.15,8.77767901950412L249.3,6.625160217285156L249.75,70.23573393291896L249.9,-16.40237924787735L250.2,64.01409318712022L250.35,37.59702788458932L250.5,2.6162396536933272L250.95,4.921131557888458L251.10000000000002,22.23745706346301L251.54999999999998,-0.11277325948077532L251.7,-13.77203114827472L251.85000000000002,34.95448578728568L252,23.193964428371856L252.15,-2.318047841389955L252.29999999999998,6.309464878506134L252.45000000000002,9.362698554992676L252.75,11.682877752515992L252.9,14.10399458143445L253.04999999999998,-7.167646937900116L253.20000000000002,34.002712673611114L253.35,-4.563987943861235L253.65,-40.50719663831924L253.79999999999998,2.0129338370429366L253.95000000000002,-35.8805883195665L254.55,-38.82612249586319L254.85,3.2879091898600166" style="fill: none;" fill="none"></path></g></g></g></g></g></g><g transform="translate(60, 178)" clip-path="url(#clip_1)"><clipPath id="clip_1"><rect width="270" height="22"></rect></clipPath><g><g><line x1="0" y1="0" x2="0" y2="5" style="visibility: inherit;" fill="rgb(0, 0, 0)" stroke="rgb(204, 204, 204)" stroke-width="1px"></line><line x1="30" y1="0" x2="30" y2="5" style="visibility: inherit;" fill="rgb(0, 0, 0)" stroke="rgb(204, 204, 204)" stroke-width="1px"></line><line x1="60" y1="0" x2="60" y2="5" style="visibility: inherit;" fill="rgb(0, 0, 0)" stroke="rgb(204, 204, 204)" stroke-width="1px"></line><line x1="90" y1="0" x2="90" y2="5" style="visibility: inherit;" fill="rgb(0, 0, 0)" stroke="rgb(204, 204, 204)" stroke-width="1px"></line><line x1="120" y1="0" x2="120" y2="5" style="visibility: inherit;" fill="rgb(0, 0, 0)" stroke="rgb(204, 204, 204)" stroke-width="1px"></line><line x1="150" y1="0" x2="150" y2="5" style="visibility: inherit;" fill="rgb(0, 0, 0)" stroke="rgb(204, 204, 204)" stroke-width="1px"></line><line x1="180" y1="0" x2="180" y2="5" style="visibility: inherit;" fill="rgb(0, 0, 0)" stroke="rgb(204, 204, 204)" stroke-width="1px"></line><line x1="210" y1="0" x2="210" y2="5" style="visibility: inherit;" fill="rgb(0, 0, 0)" stroke="rgb(204, 204, 204)" stroke-width="1px"></line><line x1="240" y1="0" x2="240" y2="5" style="visibility: inherit;" fill="rgb(0, 0, 0)" stroke="rgb(204, 204, 204)" stroke-width="1px"></line><line x1="270" y1="0" x2="270" y2="5" style="visibility: inherit;" fill="rgb(0, 0, 0)" stroke="rgb(204, 204, 204)" stroke-width="1px"></line></g><g transform="translate(0, 8)"><text x="0" y="0" dx="0em" dy="0.95em" style="text-anchor: middle; visibility: hidden; font-family: &quot;Helvetica Neue&quot;, sans-serif; font-size: 12px; font-weight: 200;" fill="rgb(50, 49, 63)" stroke="none" stroke-width="1px">-200.0</text><text x="30" y="0" dx="0em" dy="0.95em" style="text-anchor: middle; visibility: inherit; font-family: &quot;Helvetica Neue&quot;, sans-serif; font-size: 12px; font-weight: 200;" fill="rgb(50, 49, 63)" stroke="none" stroke-width="1px">0.000</text><text x="60" y="0" dx="0em" dy="0.95em" style="text-anchor: middle; visibility: hidden; font-family: &quot;Helvetica Neue&quot;, sans-serif; font-size: 12px; font-weight: 200;" fill="rgb(50, 49, 63)" stroke="none" stroke-width="1px">200.0</text><text x="90" y="0" dx="0em" dy="0.95em" style="text-anchor: middle; visibility: inherit; font-family: &quot;Helvetica Neue&quot;, sans-serif; font-size: 12px; font-weight: 200;" fill="rgb(50, 49, 63)" stroke="none" stroke-width="1px">400.0</text><text x="120" y="0" dx="0em" dy="0.95em" style="text-anchor: middle; visibility: hidden; font-family: &quot;Helvetica Neue&quot;, sans-serif; font-size: 12px; font-weight: 200;" fill="rgb(50, 49, 63)" stroke="none" stroke-width="1px">600.0</text><text x="150" y="0" dx="0em" dy="0.95em" style="text-anchor: middle; visibility: inherit; font-family: &quot;Helvetica Neue&quot;, sans-serif; font-size: 12px; font-weight: 200;" fill="rgb(50, 49, 63)" stroke="none" stroke-width="1px">800.0</text><text x="180" y="0" dx="0em" dy="0.95em" style="text-anchor: middle; visibility: hidden; font-family: &quot;Helvetica Neue&quot;, sans-serif; font-size: 12px; font-weight: 200;" fill="rgb(50, 49, 63)" stroke="none" stroke-width="1px">1.000k</text><text x="210" y="0" dx="0em" dy="0.95em" style="text-anchor: middle; visibility: inherit; font-family: &quot;Helvetica Neue&quot;, sans-serif; font-size: 12px; font-weight: 200;" fill="rgb(50, 49, 63)" stroke="none" stroke-width="1px">1.200k</text><text x="240" y="0" dx="0em" dy="0.95em" style="text-anchor: middle; visibility: hidden; font-family: &quot;Helvetica Neue&quot;, sans-serif; font-size: 12px; font-weight: 200;" fill="rgb(50, 49, 63)" stroke="none" stroke-width="1px">1.400k</text><text x="270" y="0" dx="0em" dy="0.95em" style="text-anchor: middle; visibility: hidden; font-family: &quot;Helvetica Neue&quot;, sans-serif; font-size: 12px; font-weight: 200;" fill="rgb(50, 49, 63)" stroke="none" stroke-width="1px">1.600k</text></g><line x1="0" y1="0" x2="270" y2="0" fill="rgb(0, 0, 0)" stroke="rgb(204, 204, 204)" stroke-width="1px"></line></g></g></g></g></svg>